<svg width="321" height="320" viewBox="0 0 321 320" fill="none" xmlns="http://www.w3.org/2000/svg">
<g clip-path="url(#clip0_160_128)">
<path d="M40.5 40H80.5V80H40.5V40Z" fill="#B3B3B3"/>
<path d="M120.5 0V120H0.5V0H120.5ZM100.5 20H20.5V100H100.5V20ZM80.5 240H40.5V280H80.5V240Z" fill="#B3B3B3"/>
<path d="M120.5 200V320H0.5V200H120.5ZM20.5 220V300H100.5V220H20.5ZM240.5 40H280.5V80H240.5V40Z" fill="#B3B3B3"/>
<path d="M200.5 0V120H320.5V0H200.5ZM300.5 20V100H220.5V20H300.5ZM160.5 20V0H180.5V40H160.5V80H140.5V20H160.5ZM160.5 120V80H180.5V120H160.5ZM120.5 160V140H140.5V120H160.5V160H180.5V140H280.5V160H200.5V180H140.5V160H120.5ZM120.5 160V180H40.5V160H20.5V180H0.5V140H60.5V160H120.5ZM320.5 180H300.5V140H320.5V180ZM300.5 180H280.5V220H320.5V200H300.5V180ZM220.5 180H260.5V200H240.5V220H220.5V180ZM260.5 240V220H240.5V240H220.5V260H180.5V280H240.5V240H260.5ZM260.5 240H320.5V260H280.5V280H260.5V240ZM180.5 220V240H200.5V200H140.5V220H180.5Z" fill="#B3B3B3"/>
<path d="M140.5 240H160.5V300H240.5V320H140.5V240ZM320.5 280V320H260.5V300H300.5V280H320.5Z" fill="#B3B3B3"/>
</g>
<defs>
<clipPath id="clip0_160_128">
<rect width="320" height="320" fill="white" transform="translate(0.5)"/>
</clipPath>
</defs>
</svg>
