<svg width="41" height="40" viewBox="0 0 41 40" fill="none" xmlns="http://www.w3.org/2000/svg">
<path d="M12.5 24C10.26 24 8.5 22.24 8.5 20C8.5 17.76 10.26 16 12.5 16C14.74 16 16.5 17.76 16.5 20C16.5 22.24 14.74 24 12.5 24ZM12.5 17.6C11.14 17.6 10.1 18.64 10.1 20C10.1 21.36 11.14 22.4 12.5 22.4C13.86 22.4 14.9 21.36 14.9 20C14.9 18.64 13.86 17.6 12.5 17.6ZM28.5 16C26.26 16 24.5 14.24 24.5 12C24.5 9.76 26.26 8 28.5 8C30.74 8 32.5 9.76 32.5 12C32.5 14.24 30.74 16 28.5 16ZM28.5 9.6C27.14 9.6 26.1 10.64 26.1 12C26.1 13.36 27.14 14.4 28.5 14.4C29.86 14.4 30.9 13.36 30.9 12C30.9 10.64 29.86 9.6 28.5 9.6ZM28.5 32C26.26 32 24.5 30.24 24.5 28C24.5 25.76 26.26 24 28.5 24C30.74 24 32.5 25.76 32.5 28C32.5 30.24 30.74 32 28.5 32ZM28.5 25.6C27.14 25.6 26.1 26.64 26.1 28C26.1 29.36 27.14 30.4 28.5 30.4C29.86 30.4 30.9 29.36 30.9 28C30.9 26.64 29.86 25.6 28.5 25.6Z" fill="#40117C"/>
<path d="M15.7056 20.708L26.0096 25.86L25.2936 27.2904L14.9896 22.1384L15.7056 20.708ZM25.2944 12.708L26.0096 14.14L15.7056 19.2904L14.9904 17.8584L25.2944 12.708Z" fill="#40117C"/>
</svg>
