<svg width="60" height="61" viewBox="0 0 60 61" fill="none" xmlns="http://www.w3.org/2000/svg">
<path d="M46.5 27.1492C39.0384 27.1492 33 34.6972 33 44.0242C33 53.3511 39.0384 60.8992 46.5 60.8992C53.9616 60.8992 60 53.3511 60 44.0242C60 34.6972 53.9616 27.1492 46.5 27.1492ZM52.5 44.7613C52.5 45.3871 52.0903 45.8992 51.5897 45.8992H45.9113C45.4106 45.8992 45.0009 45.3871 45.0009 44.7613V35.7882C45.0009 35.1625 45.4106 34.6503 45.9113 34.6503H47.0897C47.5903 34.6503 48 35.1625 48 35.7882V42.1492H51.5897C52.0903 42.1492 52.5 42.6613 52.5 43.2871V44.7613ZM46.5 23.3992C47.0062 23.3992 47.505 23.4378 48 23.4941V17.7742C48 14.7742 45.9 12.1492 43.5 12.1492H36V6.52417C36 3.52417 33.9 0.89917 31.5 0.89917H16.5C14.1 0.89917 12 3.52417 12 6.52417V12.1492H4.5C2.1 12.1492 0 14.7742 0 17.7742V27.1492H37.0425C39.7238 24.7949 42.9816 23.3992 46.5 23.3992ZM30 12.1492H18V8.39917H30V12.1492ZM30.6394 38.3992H19.5C18.6712 38.3992 18 37.5601 18 36.5242V30.8992H0V47.7742C0 50.7742 2.1 53.3992 4.5 53.3992H31.8216C30.6656 50.582 30 47.4015 30 44.0242C30 42.0718 30.2325 40.1898 30.6394 38.3992Z" fill="#7A428E"/>
</svg>
