<svg width="40" height="60" viewBox="0 0 40 60" fill="none" xmlns="http://www.w3.org/2000/svg">
<path d="M23.3333 15.9375V0H2.5C1.11458 0 0 1.25391 0 2.8125V57.1875C0 58.7461 1.11458 60 2.5 60H37.5C38.8854 60 40 58.7461 40 57.1875V18.75H25.8333C24.4583 18.75 23.3333 17.4844 23.3333 15.9375ZM13.3333 32.8125C13.3333 33.3305 12.9604 33.75 12.5 33.75H11.6667C10.7458 33.75 10 34.5891 10 35.625V39.375C10 40.4109 10.7458 41.25 11.6667 41.25H12.5C12.9604 41.25 13.3333 41.6695 13.3333 42.1875V44.0625C13.3333 44.5805 12.9604 45 12.5 45H11.6667C8.90521 45 6.66667 42.4816 6.66667 39.375V35.625C6.66667 32.5184 8.90521 30 11.6667 30H12.5C12.9604 30 13.3333 30.4195 13.3333 30.9375V32.8125ZM17.9448 45H16.6667C16.2062 45 15.8333 44.5805 15.8333 44.0625V42.1875C15.8333 41.6695 16.2062 41.25 16.6667 41.25H17.9448C18.5646 41.25 19.0292 40.8398 19.0292 40.4742C19.0292 40.3219 18.951 40.1625 18.8083 40.0242L16.5281 37.8246C15.6458 36.9785 15.1396 35.7762 15.1396 34.527C15.1396 32.0309 17.1208 30.0012 19.5573 30.0012H20.8333C21.2937 30.0012 21.6667 30.4207 21.6667 30.9387V32.8137C21.6667 33.3316 21.2937 33.7512 20.8333 33.7512H19.5552C18.9354 33.7512 18.4708 34.1613 18.4708 34.527C18.4708 34.6793 18.549 34.8387 18.6917 34.977L20.9719 37.1766C21.8542 38.0227 22.3604 39.225 22.3604 40.4742C22.3615 42.9691 20.3813 45 17.9448 45ZM26.6667 30.9375V33.375C26.6667 35.7504 27.2604 38.0824 28.3333 40.0406C29.4062 38.0836 30 35.7504 30 33.375V30.9375C30 30.4195 30.3729 30 30.8333 30H32.5C32.9604 30 33.3333 30.4195 33.3333 30.9375V33.375C33.3333 37.5328 31.9917 41.448 29.5542 44.4012C29.2396 44.782 28.7969 45 28.3333 45C27.8698 45 27.4271 44.782 27.1125 44.4012C24.675 41.448 23.3333 37.5328 23.3333 33.375V30.9375C23.3333 30.4195 23.7062 30 24.1667 30H25.8333C26.2937 30 26.6667 30.4195 26.6667 30.9375ZM39.2708 12.3047L29.0729 0.820312C28.6042 0.292969 27.9688 0 27.3021 0H26.6667V15H40V14.2852C40 13.5469 39.7396 12.832 39.2708 12.3047Z" fill="#7A428E"/>
</svg>
