<svg width="100" height="100" viewBox="0 0 100 100" fill="none" xmlns="http://www.w3.org/2000/svg">
<circle cx="50" cy="50" r="50" fill="#E5D3FE"/>
<path d="M19.48 71V32.192H45.464V39.528H28.216V47.648H43.56V54.984H28.216V71H19.48ZM74.9406 71C74.5299 69.656 74.0632 68.2747 73.5406 66.856C73.0552 65.4373 72.5699 64.0187 72.0846 62.6H56.9646C56.4792 64.0187 55.9752 65.4373 55.4526 66.856C54.9672 68.2747 54.5192 69.656 54.1086 71H45.0366C46.4926 66.8187 47.8739 62.9547 49.1806 59.408C50.4872 55.8613 51.7566 52.52 52.9886 49.384C54.2579 46.248 55.4899 43.28 56.6846 40.48C57.9166 37.6427 59.1859 34.88 60.4926 32.192H68.8366C70.1059 34.88 71.3566 37.6427 72.5886 40.48C73.8206 43.28 75.0526 46.248 76.2846 49.384C77.5539 52.52 78.8419 55.8613 80.1486 59.408C81.4552 62.9547 82.8366 66.8187 84.2926 71H74.9406ZM64.4686 40.984C64.2819 41.544 64.0019 42.3093 63.6286 43.28C63.2552 44.2507 62.8259 45.3707 62.3406 46.64C61.8552 47.9093 61.3139 49.3093 60.7166 50.84C60.1566 52.3707 59.5779 53.976 58.9806 55.656H70.0126C69.4152 53.976 68.8366 52.3707 68.2766 50.84C67.7166 49.3093 67.1752 47.9093 66.6526 46.64C66.1672 45.3707 65.7379 44.2507 65.3646 43.28C64.9912 42.3093 64.6926 41.544 64.4686 40.984Z" fill="#40117C"/>
</svg>
