<svg width="195" height="127" viewBox="0 0 195 127" fill="none" xmlns="http://www.w3.org/2000/svg">
<path d="M71.7678 99.1133C72.8172 103.12 70.4163 107.28 66.2975 107.719C57.5289 108.653 48.6209 107.255 40.4972 103.603C30.0806 98.9198 21.5813 90.8116 16.4129 80.6271C11.2444 70.4426 9.71838 58.7956 12.0886 47.6233C14.4588 36.4511 20.5824 26.427 29.4409 19.2183C38.2993 12.0096 49.3587 8.05085 60.7795 8.00049C72.2003 7.95012 83.2942 11.8112 92.2159 18.9414C101.138 26.0717 107.349 36.0414 109.818 47.1923C111.743 55.8888 111.301 64.8948 108.605 73.2906C107.338 77.2343 102.777 78.7399 99.0672 76.898C95.3571 75.0562 93.9314 70.5575 94.942 66.5405C96.2617 61.2956 96.3563 55.7815 95.1726 50.4346C93.4445 42.629 89.0963 35.6502 82.8511 30.659C76.6059 25.6678 68.8402 22.9651 60.8456 23.0003C52.8511 23.0356 45.1095 25.8067 38.9086 30.8528C32.7077 35.8989 28.4212 42.9158 26.762 50.7363C25.1029 58.5569 26.1711 66.7098 29.789 73.839C33.4069 80.9681 39.3564 86.6439 46.648 89.9221C51.6428 92.1677 57.061 93.1956 62.4647 92.9694C66.6032 92.7961 70.7183 95.1063 71.7678 99.1133Z" fill="#EE4266"/>
<path d="M63.6444 51H61.4082C56.5768 51 53.7267 56.419 56.4645 60.3999L87.4119 105.4C88.5313 107.028 90.3801 108 92.3556 108H94.5918C99.4232 108 102.273 102.581 99.5355 98.6001L68.5881 53.6001C67.4687 51.9724 65.6198 51 63.6444 51Z" fill="white"/>
<path d="M140.799 80.662C139.772 80.4053 138.566 80.1487 137.18 79.892C135.794 79.584 134.305 79.43 132.714 79.43C131.995 79.43 131.123 79.507 130.096 79.661C129.121 79.7637 128.376 79.892 127.863 80.046V111H116.39V72.654C118.443 71.9353 120.856 71.268 123.628 70.652C126.451 69.9847 129.583 69.651 133.022 69.651C133.638 69.651 134.382 69.7023 135.255 69.805C136.128 69.8563 137 69.959 137.873 70.113C138.746 70.2157 139.618 70.3697 140.491 70.575C141.364 70.729 142.108 70.9343 142.724 71.191L140.799 80.662ZM166.471 82.818L174.479 70.498H186.337L172.477 89.979C175.557 93.829 178.355 97.5763 180.87 101.221C183.386 104.866 185.388 108.125 186.876 111H174.556C174.146 110.23 173.632 109.28 173.016 108.151C172.4 106.97 171.707 105.764 170.937 104.532C170.167 103.249 169.346 101.991 168.473 100.759C167.652 99.4757 166.831 98.3207 166.009 97.294C165.239 98.2693 164.444 99.3473 163.622 100.528C162.852 101.709 162.108 102.915 161.389 104.147C160.671 105.328 159.952 106.508 159.233 107.689C158.566 108.87 157.976 109.973 157.462 111H145.758C146.374 109.717 147.221 108.202 148.299 106.457C149.377 104.712 150.532 102.915 151.764 101.067C153.048 99.1677 154.382 97.294 155.768 95.446C157.154 93.5467 158.515 91.7757 159.849 90.133C157.539 86.899 155.229 83.6393 152.919 80.354C150.609 77.0173 148.325 73.732 146.066 70.498H158.463L166.471 82.818Z" fill="#D9D9D9"/>
<path d="M195 117C195 118.313 194.741 119.614 194.239 120.827C193.736 122.04 193 123.142 192.071 124.071C191.142 125 190.04 125.736 188.827 126.239C187.614 126.741 186.313 127 185 127V124C185.919 124 186.83 123.819 187.679 123.467C188.528 123.115 189.3 122.6 189.95 121.95C190.6 121.3 191.115 120.528 191.467 119.679C191.819 118.83 192 117.919 192 117H195Z" fill="#D9D9D9"/>
<path d="M195 10C195 8.68678 194.741 7.38642 194.239 6.17317C193.736 4.95991 193 3.85752 192.071 2.92893C191.142 2.00035 190.04 1.26375 188.827 0.761204C187.614 0.258657 186.313 0 185 0V3C185.919 3 186.83 3.18106 187.679 3.53284C188.528 3.88463 189.3 4.40024 189.95 5.05025C190.6 5.70026 191.115 6.47194 191.467 7.32122C191.819 8.1705 192 9.08075 192 10H195Z" fill="#D9D9D9"/>
<path d="M0 10C0 8.68678 0.258657 7.38642 0.761204 6.17317C1.26375 4.95991 2.00035 3.85752 2.92893 2.92893C3.85752 2.00035 4.95991 1.26375 6.17317 0.761204C7.38642 0.258657 8.68678 0 10 0V3C9.08075 3 8.1705 3.18106 7.32122 3.53284C6.47194 3.88463 5.70026 4.40024 5.05025 5.05025C4.40024 5.70026 3.88463 6.47194 3.53284 7.32122C3.18106 8.1705 3 9.08075 3 10H0Z" fill="#D9D9D9"/>
<path d="M0 117C0 118.313 0.258657 119.614 0.761204 120.827C1.26375 122.04 2.00035 123.142 2.92893 124.071C3.85752 125 4.95991 125.736 6.17317 126.239C7.38642 126.741 8.68678 127 10 127V124C9.08075 124 8.1705 123.819 7.32122 123.467C6.47194 123.115 5.70026 122.6 5.05025 121.95C4.40024 121.3 3.88463 120.528 3.53284 119.679C3.18106 118.83 3 117.919 3 117H0Z" fill="#D9D9D9"/>
</svg>
