<svg width="445" height="472" viewBox="0 0 445 472" fill="none" xmlns="http://www.w3.org/2000/svg">
<rect x="195" y="60" width="250" height="250" rx="6" fill="white"/>
<path d="M215 90C215 87.3478 216.054 84.8043 217.929 82.9289C219.804 81.0536 222.348 80 225 80V90H215Z" fill="#4A4A4A"/>
<path d="M225 80H235V90H225V80Z" fill="#4A4A4A"/>
<path d="M235 80H245V90H235V80Z" fill="#4A4A4A"/>
<path d="M245 80H255V90H245V80Z" fill="#4A4A4A"/>
<path d="M255 80H265V90H255V80Z" fill="#4A4A4A"/>
<path d="M265 80H275V90H265V80Z" fill="#4A4A4A"/>
<path d="M275 80C277.652 80 280.196 81.0536 282.071 82.9289C283.946 84.8043 285 87.3478 285 90H275V80Z" fill="#4A4A4A"/>
<path d="M305 90C305 87.3478 306.054 84.8043 307.929 82.9289C309.804 81.0536 312.348 80 315 80V90H305Z" fill="#4A4A4A"/>
<path d="M320 80C321.326 80 322.598 80.5268 323.536 81.4645C324.473 82.4021 325 83.6739 325 85C325 86.3261 324.473 87.5979 323.536 88.5355C322.598 89.4732 321.326 90 320 90H315V80H320Z" fill="#4A4A4A"/>
<path d="M335 85C335 83.6739 335.527 82.4021 336.464 81.4645C337.402 80.5268 338.674 80 340 80C341.326 80 342.598 80.5268 343.536 81.4645C344.473 82.4021 345 83.6739 345 85V90H335V85Z" fill="#4A4A4A"/>
<path d="M355 90C355 87.3478 356.054 84.8043 357.929 82.9289C359.804 81.0536 362.348 80 365 80V90H355Z" fill="#4A4A4A"/>
<path d="M365 80H375V90H365V80Z" fill="#4A4A4A"/>
<path d="M375 80H385V90H375V80Z" fill="#4A4A4A"/>
<path d="M385 80H395V90H385V80Z" fill="#4A4A4A"/>
<path d="M395 80H405V90H395V80Z" fill="#4A4A4A"/>
<path d="M405 80H415V90H405V80Z" fill="#4A4A4A"/>
<path d="M415 80C417.652 80 420.196 81.0536 422.071 82.9289C423.946 84.8043 425 87.3478 425 90H415V80Z" fill="#4A4A4A"/>
<path d="M215 90H225V100H215V90Z" fill="#4A4A4A"/>
<path d="M275 90H285V100H275V90Z" fill="#4A4A4A"/>
<path d="M295 100C295 97.3478 296.054 94.8043 297.929 92.9289C299.804 91.0536 302.348 90 305 90V100H295Z" fill="#4A4A4A"/>
<path d="M305 100C307.652 100 310.196 98.9464 312.071 97.0711C313.946 95.1957 315 92.6522 315 90H305V100Z" fill="#4A4A4A"/>
<path d="M330 90C328.674 90 327.402 90.5268 326.464 91.4645C325.527 92.4021 325 93.6739 325 95C325 96.3261 325.527 97.5979 326.464 98.5355C327.402 99.4732 328.674 100 330 100H335V90H330Z" fill="#4A4A4A"/>
<path d="M335 90H345V100H335V90Z" fill="#4A4A4A"/>
<path d="M355 90H365V100H355V90Z" fill="#4A4A4A"/>
<path d="M415 90H425V100H415V90Z" fill="#4A4A4A"/>
<path d="M215 100H225V110H215V100Z" fill="#4A4A4A"/>
<path d="M235 110C235 107.348 236.054 104.804 237.929 102.929C239.804 101.054 242.348 100 245 100V110H235Z" fill="#4A4A4A"/>
<path d="M245 100H255V110H245V100Z" fill="#4A4A4A"/>
<path d="M255 100C257.652 100 260.196 101.054 262.071 102.929C263.946 104.804 265 107.348 265 110H255V100Z" fill="#4A4A4A"/>
<path d="M275 100H285V110H275V100Z" fill="#4A4A4A"/>
<path d="M295 100H305V110H295V100Z" fill="#4A4A4A"/>
<path d="M335 100H345V110H335V100Z" fill="#4A4A4A"/>
<path d="M355 100H365V110H355V100Z" fill="#4A4A4A"/>
<path d="M375 110C375 107.348 376.054 104.804 377.929 102.929C379.804 101.054 382.348 100 385 100V110H375Z" fill="#4A4A4A"/>
<path d="M385 100H395V110H385V100Z" fill="#4A4A4A"/>
<path d="M395 100C397.652 100 400.196 101.054 402.071 102.929C403.946 104.804 405 107.348 405 110H395V100Z" fill="#4A4A4A"/>
<path d="M415 100H425V110H415V100Z" fill="#4A4A4A"/>
<path d="M215 110H225V120H215V110Z" fill="#4A4A4A"/>
<path d="M235 110H245V120H235V110Z" fill="#4A4A4A"/>
<path d="M245 110H255V120H245V110Z" fill="#4A4A4A"/>
<path d="M255 110H265V120H255V110Z" fill="#4A4A4A"/>
<path d="M275 110H285V120H275V110Z" fill="#4A4A4A"/>
<path d="M295 110H305V120H295V110Z" fill="#4A4A4A"/>
<path d="M310 110C311.326 110 312.598 110.527 313.536 111.464C314.473 112.402 315 113.674 315 115C315 116.326 314.473 117.598 313.536 118.536C312.598 119.473 311.326 120 310 120H305V110H310Z" fill="#4A4A4A"/>
<path d="M335 110H345V120H335V110Z" fill="#4A4A4A"/>
<path d="M355 110H365V120H355V110Z" fill="#4A4A4A"/>
<path d="M375 110H385V120H375V110Z" fill="#4A4A4A"/>
<path d="M385 110H395V120H385V110Z" fill="#4A4A4A"/>
<path d="M395 110H405V120H395V110Z" fill="#4A4A4A"/>
<path d="M415 110H425V120H415V110Z" fill="#4A4A4A"/>
<path d="M215 120H225V130H215V120Z" fill="#4A4A4A"/>
<path d="M235 120C235 122.652 236.054 125.196 237.929 127.071C239.804 128.946 242.348 130 245 130V120H235Z" fill="#4A4A4A"/>
<path d="M245 120H255V130H245V120Z" fill="#4A4A4A"/>
<path d="M255 130C257.652 130 260.196 128.946 262.071 127.071C263.946 125.196 265 122.652 265 120H255V130Z" fill="#4A4A4A"/>
<path d="M275 120H285V130H275V120Z" fill="#4A4A4A"/>
<path d="M295 120H305V130H295V120Z" fill="#4A4A4A"/>
<path d="M335 125C335 126.326 335.527 127.598 336.464 128.536C337.402 129.473 338.674 130 340 130C341.326 130 342.598 129.473 343.536 128.536C344.473 127.598 345 126.326 345 125V120H335V125Z" fill="#4A4A4A"/>
<path d="M355 120H365V130H355V120Z" fill="#4A4A4A"/>
<path d="M375 120C375 122.652 376.054 125.196 377.929 127.071C379.804 128.946 382.348 130 385 130V120H375Z" fill="#4A4A4A"/>
<path d="M385 120H395V130H385V120Z" fill="#4A4A4A"/>
<path d="M395 130C397.652 130 400.196 128.946 402.071 127.071C403.946 125.196 405 122.652 405 120H395V130Z" fill="#4A4A4A"/>
<path d="M415 120H425V130H415V120Z" fill="#4A4A4A"/>
<path d="M215 130H225V140H215V130Z" fill="#4A4A4A"/>
<path d="M275 130H285V140H275V130Z" fill="#4A4A4A"/>
<path d="M295 130H305V140H295V130Z" fill="#4A4A4A"/>
<path d="M330 130C331.326 130 332.598 130.527 333.536 131.464C334.473 132.402 335 133.674 335 135C335 136.326 334.473 137.598 333.536 138.536C332.598 139.473 331.326 140 330 140C328.674 140 327.402 139.473 326.464 138.536C325.527 137.598 325 136.326 325 135C325 133.674 325.527 132.402 326.464 131.464C327.402 130.527 328.674 130 330 130Z" fill="#4A4A4A"/>
<path d="M355 130H365V140H355V130Z" fill="#4A4A4A"/>
<path d="M415 130H425V140H415V130Z" fill="#4A4A4A"/>
<path d="M215 140C215 142.652 216.054 145.196 217.929 147.071C219.804 148.946 222.348 150 225 150V140H215Z" fill="#4A4A4A"/>
<path d="M225 140H235V150H225V140Z" fill="#4A4A4A"/>
<path d="M235 140H245V150H235V140Z" fill="#4A4A4A"/>
<path d="M245 140H255V150H245V140Z" fill="#4A4A4A"/>
<path d="M255 140H265V150H255V140Z" fill="#4A4A4A"/>
<path d="M265 140H275V150H265V140Z" fill="#4A4A4A"/>
<path d="M275 150C277.652 150 280.196 148.946 282.071 147.071C283.946 145.196 285 142.652 285 140H275V150Z" fill="#4A4A4A"/>
<path d="M295 145C295 146.326 295.527 147.598 296.464 148.536C297.402 149.473 298.674 150 300 150C301.326 150 302.598 149.473 303.536 148.536C304.473 147.598 305 146.326 305 145V140H295V145Z" fill="#4A4A4A"/>
<path d="M320 140C321.326 140 322.598 140.527 323.536 141.464C324.473 142.402 325 143.674 325 145C325 146.326 324.473 147.598 323.536 148.536C322.598 149.473 321.326 150 320 150C318.674 150 317.402 149.473 316.464 148.536C315.527 147.598 315 146.326 315 145C315 143.674 315.527 142.402 316.464 141.464C317.402 140.527 318.674 140 320 140Z" fill="#4A4A4A"/>
<path d="M340 140C341.326 140 342.598 140.527 343.536 141.464C344.473 142.402 345 143.674 345 145C345 146.326 344.473 147.598 343.536 148.536C342.598 149.473 341.326 150 340 150C338.674 150 337.402 149.473 336.464 148.536C335.527 147.598 335 146.326 335 145C335 143.674 335.527 142.402 336.464 141.464C337.402 140.527 338.674 140 340 140Z" fill="#4A4A4A"/>
<path d="M355 140C355 142.652 356.054 145.196 357.929 147.071C359.804 148.946 362.348 150 365 150V140H355Z" fill="#4A4A4A"/>
<path d="M365 140H375V150H365V140Z" fill="#4A4A4A"/>
<path d="M375 140H385V150H375V140Z" fill="#4A4A4A"/>
<path d="M385 140H395V150H385V140Z" fill="#4A4A4A"/>
<path d="M395 140H405V150H395V140Z" fill="#4A4A4A"/>
<path d="M405 140H415V150H405V140Z" fill="#4A4A4A"/>
<path d="M415 150C417.652 150 420.196 148.946 422.071 147.071C423.946 145.196 425 142.652 425 140H415V150Z" fill="#4A4A4A"/>
<path d="M235 165C235 163.674 235.527 162.402 236.464 161.464C237.402 160.527 238.674 160 240 160C241.326 160 242.598 160.527 243.536 161.464C244.473 162.402 245 163.674 245 165V170H235V165Z" fill="#4A4A4A"/>
<path d="M265 170C265 167.348 266.054 164.804 267.929 162.929C269.804 161.054 272.348 160 275 160V170H265Z" fill="#4A4A4A"/>
<path d="M280 160C281.326 160 282.598 160.527 283.536 161.464C284.473 162.402 285 163.674 285 165C285 166.326 284.473 167.598 283.536 168.536C282.598 169.473 281.326 170 280 170H275V160H280Z" fill="#4A4A4A"/>
<path d="M365 170C365 167.348 366.054 164.804 367.929 162.929C369.804 161.054 372.348 160 375 160V170H365Z" fill="#4A4A4A"/>
<path d="M375 160H385V170H375V160Z" fill="#4A4A4A"/>
<path d="M385 160H395V170H385V160Z" fill="#4A4A4A"/>
<path d="M395 160H405V170H395V160Z" fill="#4A4A4A"/>
<path d="M405 160C407.652 160 410.196 161.054 412.071 162.929C413.946 164.804 415 167.348 415 170H405V160Z" fill="#4A4A4A"/>
<path d="M220 170C218.674 170 217.402 170.527 216.464 171.464C215.527 172.402 215 173.674 215 175C215 176.326 215.527 177.598 216.464 178.536C217.402 179.473 218.674 180 220 180H225V170H220Z" fill="#4A4A4A"/>
<path d="M225 170H235V180H225V170Z" fill="#4A4A4A"/>
<path d="M235 170H245V180H235V170Z" fill="#4A4A4A"/>
<path d="M250 170C251.326 170 252.598 170.527 253.536 171.464C254.473 172.402 255 173.674 255 175C255 176.326 254.473 177.598 253.536 178.536C252.598 179.473 251.326 180 250 180H245V170H250Z" fill="#4A4A4A"/>
<path d="M265 170H275V180H265V170Z" fill="#4A4A4A"/>
<path d="M365 170H375V180H365V170Z" fill="#4A4A4A"/>
<path d="M405 170C405 172.652 406.054 175.196 407.929 177.071C409.804 178.946 412.348 180 415 180V170H405Z" fill="#4A4A4A"/>
<path d="M415 170C417.652 170 420.196 171.054 422.071 172.929C423.946 174.804 425 177.348 425 180H415V170Z" fill="#4A4A4A"/>
<path d="M225 185C225 186.326 225.527 187.598 226.464 188.536C227.402 189.473 228.674 190 230 190C231.326 190 232.598 189.473 233.536 188.536C234.473 187.598 235 186.326 235 185V180H225V185Z" fill="#4A4A4A"/>
<path d="M255 190C255 187.348 256.054 184.804 257.929 182.929C259.804 181.054 262.348 180 265 180V190H255Z" fill="#4A4A4A"/>
<path d="M265 180H275V190H265V180Z" fill="#4A4A4A"/>
<path d="M280 180C281.326 180 282.598 180.527 283.536 181.464C284.473 182.402 285 183.674 285 185C285 186.326 284.473 187.598 283.536 188.536C282.598 189.473 281.326 190 280 190H275V180H280Z" fill="#4A4A4A"/>
<path d="M365 180H375V190H365V180Z" fill="#4A4A4A"/>
<path d="M375 180H385V190H375V180Z" fill="#4A4A4A"/>
<path d="M385 180C387.652 180 390.196 181.054 392.071 182.929C393.946 184.804 395 187.348 395 190H385V180Z" fill="#4A4A4A"/>
<path d="M415 185C415 186.326 415.527 187.598 416.464 188.536C417.402 189.473 418.674 190 420 190C421.326 190 422.598 189.473 423.536 188.536C424.473 187.598 425 186.326 425 185V180H415V185Z" fill="#4A4A4A"/>
<path d="M235 200C235 197.348 236.054 194.804 237.929 192.929C239.804 191.054 242.348 190 245 190V200H235Z" fill="#4A4A4A"/>
<path d="M245 190H255V200H245V190Z" fill="#4A4A4A"/>
<path d="M255 190H265V200H255V190Z" fill="#4A4A4A"/>
<path d="M355 200C355 197.348 356.054 194.804 357.929 192.929C359.804 191.054 362.348 190 365 190V200H355Z" fill="#4A4A4A"/>
<path d="M365 190H375V200H365V190Z" fill="#4A4A4A"/>
<path d="M385 195C385 196.326 385.527 197.598 386.464 198.536C387.402 199.473 388.674 200 390 200C391.326 200 392.598 199.473 393.536 198.536C394.473 197.598 395 196.326 395 195V190H385V195Z" fill="#4A4A4A"/>
<path d="M405 195C405 193.674 405.527 192.402 406.464 191.464C407.402 190.527 408.674 190 410 190C411.326 190 412.598 190.527 413.536 191.464C414.473 192.402 415 193.674 415 195V200H405V195Z" fill="#4A4A4A"/>
<path d="M220 200C221.326 200 222.598 200.527 223.536 201.464C224.473 202.402 225 203.674 225 205C225 206.326 224.473 207.598 223.536 208.536C222.598 209.473 221.326 210 220 210C218.674 210 217.402 209.473 216.464 208.536C215.527 207.598 215 206.326 215 205C215 203.674 215.527 202.402 216.464 201.464C217.402 200.527 218.674 200 220 200Z" fill="#4A4A4A"/>
<path d="M235 205C235 206.326 235.527 207.598 236.464 208.536C237.402 209.473 238.674 210 240 210C241.326 210 242.598 209.473 243.536 208.536C244.473 207.598 245 206.326 245 205V200H235V205Z" fill="#4A4A4A"/>
<path d="M255 205C255 206.326 255.527 207.598 256.464 208.536C257.402 209.473 258.674 210 260 210C261.326 210 262.598 209.473 263.536 208.536C264.473 207.598 265 206.326 265 205V200H255V205Z" fill="#4A4A4A"/>
<path d="M280 200C281.326 200 282.598 200.527 283.536 201.464C284.473 202.402 285 203.674 285 205C285 206.326 284.473 207.598 283.536 208.536C282.598 209.473 281.326 210 280 210C278.674 210 277.402 209.473 276.464 208.536C275.527 207.598 275 206.326 275 205C275 203.674 275.527 202.402 276.464 201.464C277.402 200.527 278.674 200 280 200Z" fill="#4A4A4A"/>
<path d="M355 200C355 202.652 356.054 205.196 357.929 207.071C359.804 208.946 362.348 210 365 210V200H355Z" fill="#4A4A4A"/>
<path d="M365 200H375V210H365V200Z" fill="#4A4A4A"/>
<path d="M380 200C381.326 200 382.598 200.527 383.536 201.464C384.473 202.402 385 203.674 385 205C385 206.326 384.473 207.598 383.536 208.536C382.598 209.473 381.326 210 380 210H375V200H380Z" fill="#4A4A4A"/>
<path d="M405 200H415V210H405V200Z" fill="#4A4A4A"/>
<path d="M415 200C417.652 200 420.196 201.054 422.071 202.929C423.946 204.804 425 207.348 425 210H415V200Z" fill="#4A4A4A"/>
<path d="M395 220C395 217.348 396.054 214.804 397.929 212.929C399.804 211.054 402.348 210 405 210V220H395Z" fill="#4A4A4A"/>
<path d="M405 210H415V220H405V210Z" fill="#4A4A4A"/>
<path d="M415 210H425V220H415V210Z" fill="#4A4A4A"/>
<path d="M215 230C215 227.348 216.054 224.804 217.929 222.929C219.804 221.054 222.348 220 225 220V230H215Z" fill="#4A4A4A"/>
<path d="M225 220H235V230H225V220Z" fill="#4A4A4A"/>
<path d="M235 220H245V230H235V220Z" fill="#4A4A4A"/>
<path d="M245 220H255V230H245V220Z" fill="#4A4A4A"/>
<path d="M255 220H265V230H255V220Z" fill="#4A4A4A"/>
<path d="M265 220H275V230H265V220Z" fill="#4A4A4A"/>
<path d="M275 220C277.652 220 280.196 221.054 282.071 222.929C283.946 224.804 285 227.348 285 230H275V220Z" fill="#4A4A4A"/>
<path d="M295 230C295 227.348 296.054 224.804 297.929 222.929C299.804 221.054 302.348 220 305 220V230H295Z" fill="#4A4A4A"/>
<path d="M305 220C307.652 220 310.196 221.054 312.071 222.929C313.946 224.804 315 227.348 315 230H305V220Z" fill="#4A4A4A"/>
<path d="M340 220C341.326 220 342.598 220.527 343.536 221.464C344.473 222.402 345 223.674 345 225C345 226.326 344.473 227.598 343.536 228.536C342.598 229.473 341.326 230 340 230C338.674 230 337.402 229.473 336.464 228.536C335.527 227.598 335 226.326 335 225C335 223.674 335.527 222.402 336.464 221.464C337.402 220.527 338.674 220 340 220Z" fill="#4A4A4A"/>
<path d="M390 220C388.674 220 387.402 220.527 386.464 221.464C385.527 222.402 385 223.674 385 225C385 226.326 385.527 227.598 386.464 228.536C387.402 229.473 388.674 230 390 230H395V220H390Z" fill="#4A4A4A"/>
<path d="M395 230C397.652 230 400.196 228.946 402.071 227.071C403.946 225.196 405 222.652 405 220H395V230Z" fill="#4A4A4A"/>
<path d="M415 220H425V230H415V220Z" fill="#4A4A4A"/>
<path d="M215 230H225V240H215V230Z" fill="#4A4A4A"/>
<path d="M275 230H285V240H275V230Z" fill="#4A4A4A"/>
<path d="M295 230C295 232.652 296.054 235.196 297.929 237.071C299.804 238.946 302.348 240 305 240V230H295Z" fill="#4A4A4A"/>
<path d="M305 230H315V240H305V230Z" fill="#4A4A4A"/>
<path d="M315 230H325V240H315V230Z" fill="#4A4A4A"/>
<path d="M325 230C327.652 230 330.196 231.054 332.071 232.929C333.946 234.804 335 237.348 335 240H325V230Z" fill="#4A4A4A"/>
<path d="M350 230C348.674 230 347.402 230.527 346.464 231.464C345.527 232.402 345 233.674 345 235C345 236.326 345.527 237.598 346.464 238.536C347.402 239.473 348.674 240 350 240H355V230H350Z" fill="#4A4A4A"/>
<path d="M360 230C361.326 230 362.598 230.527 363.536 231.464C364.473 232.402 365 233.674 365 235C365 236.326 364.473 237.598 363.536 238.536C362.598 239.473 361.326 240 360 240H355V230H360Z" fill="#4A4A4A"/>
<path d="M380 230C381.326 230 382.598 230.527 383.536 231.464C384.473 232.402 385 233.674 385 235C385 236.326 384.473 237.598 383.536 238.536C382.598 239.473 381.326 240 380 240C378.674 240 377.402 239.473 376.464 238.536C375.527 237.598 375 236.326 375 235C375 233.674 375.527 232.402 376.464 231.464C377.402 230.527 378.674 230 380 230Z" fill="#4A4A4A"/>
<path d="M405 240C405 237.348 406.054 234.804 407.929 232.929C409.804 231.054 412.348 230 415 230V240H405Z" fill="#4A4A4A"/>
<path d="M415 230H425V240H415V230Z" fill="#4A4A4A"/>
<path d="M215 240H225V250H215V240Z" fill="#4A4A4A"/>
<path d="M235 250C235 247.348 236.054 244.804 237.929 242.929C239.804 241.054 242.348 240 245 240V250H235Z" fill="#4A4A4A"/>
<path d="M245 240H255V250H245V240Z" fill="#4A4A4A"/>
<path d="M255 240C257.652 240 260.196 241.054 262.071 242.929C263.946 244.804 265 247.348 265 250H255V240Z" fill="#4A4A4A"/>
<path d="M275 240H285V250H275V240Z" fill="#4A4A4A"/>
<path d="M315 240C315 242.652 316.054 245.196 317.929 247.071C319.804 248.946 322.348 250 325 250V240H315Z" fill="#4A4A4A"/>
<path d="M325 240H335V250H325V240Z" fill="#4A4A4A"/>
<path d="M335 240C337.652 240 340.196 241.054 342.071 242.929C343.946 244.804 345 247.348 345 250H335V240Z" fill="#4A4A4A"/>
<path d="M385 250C385 247.348 386.054 244.804 387.929 242.929C389.804 241.054 392.348 240 395 240V250H385Z" fill="#4A4A4A"/>
<path d="M395 240H405V250H395V240Z" fill="#4A4A4A"/>
<path d="M405 240H415V250H405V240Z" fill="#4A4A4A"/>
<path d="M415 250C417.652 250 420.196 248.946 422.071 247.071C423.946 245.196 425 242.652 425 240H415V250Z" fill="#4A4A4A"/>
<path d="M215 250H225V260H215V250Z" fill="#4A4A4A"/>
<path d="M235 250H245V260H235V250Z" fill="#4A4A4A"/>
<path d="M245 250H255V260H245V250Z" fill="#4A4A4A"/>
<path d="M255 250H265V260H255V250Z" fill="#4A4A4A"/>
<path d="M275 250H285V260H275V250Z" fill="#4A4A4A"/>
<path d="M335 250C335 252.652 336.054 255.196 337.929 257.071C339.804 258.946 342.348 260 345 260V250H335Z" fill="#4A4A4A"/>
<path d="M345 250H355V260H345V250Z" fill="#4A4A4A"/>
<path d="M355 250H365V260H355V250Z" fill="#4A4A4A"/>
<path d="M365 250C367.652 250 370.196 251.054 372.071 252.929C373.946 254.804 375 257.348 375 260H365V250Z" fill="#4A4A4A"/>
<path d="M385 250H395V260H385V250Z" fill="#4A4A4A"/>
<path d="M395 260C397.652 260 400.196 258.946 402.071 257.071C403.946 255.196 405 252.652 405 250H395V260Z" fill="#4A4A4A"/>
<path d="M215 260H225V270H215V260Z" fill="#4A4A4A"/>
<path d="M235 260C235 262.652 236.054 265.196 237.929 267.071C239.804 268.946 242.348 270 245 270V260H235Z" fill="#4A4A4A"/>
<path d="M245 260H255V270H245V260Z" fill="#4A4A4A"/>
<path d="M255 270C257.652 270 260.196 268.946 262.071 267.071C263.946 265.196 265 262.652 265 260H255V270Z" fill="#4A4A4A"/>
<path d="M275 260H285V270H275V260Z" fill="#4A4A4A"/>
<path d="M300 260C298.674 260 297.402 260.527 296.464 261.464C295.527 262.402 295 263.674 295 265C295 266.326 295.527 267.598 296.464 268.536C297.402 269.473 298.674 270 300 270H305V260H300Z" fill="#4A4A4A"/>
<path d="M310 260C311.326 260 312.598 260.527 313.536 261.464C314.473 262.402 315 263.674 315 265C315 266.326 314.473 267.598 313.536 268.536C312.598 269.473 311.326 270 310 270H305V260H310Z" fill="#4A4A4A"/>
<path d="M345 265C345 266.326 345.527 267.598 346.464 268.536C347.402 269.473 348.674 270 350 270C351.326 270 352.598 269.473 353.536 268.536C354.473 267.598 355 266.326 355 265V260H345V265Z" fill="#4A4A4A"/>
<path d="M365 260H375V270H365V260Z" fill="#4A4A4A"/>
<path d="M375 260H385V270H375V260Z" fill="#4A4A4A"/>
<path d="M385 260H395V270H385V260Z" fill="#4A4A4A"/>
<path d="M410 260C408.674 260 407.402 260.527 406.464 261.464C405.527 262.402 405 263.674 405 265C405 266.326 405.527 267.598 406.464 268.536C407.402 269.473 408.674 270 410 270H415V260H410Z" fill="#4A4A4A"/>
<path d="M420 260C421.326 260 422.598 260.527 423.536 261.464C424.473 262.402 425 263.674 425 265C425 266.326 424.473 267.598 423.536 268.536C422.598 269.473 421.326 270 420 270H415V260H420Z" fill="#4A4A4A"/>
<path d="M215 270H225V280H215V270Z" fill="#4A4A4A"/>
<path d="M275 270H285V280H275V270Z" fill="#4A4A4A"/>
<path d="M330 270C328.674 270 327.402 270.527 326.464 271.464C325.527 272.402 325 273.674 325 275C325 276.326 325.527 277.598 326.464 278.536C327.402 279.473 328.674 280 330 280H335V270H330Z" fill="#4A4A4A"/>
<path d="M340 270C341.326 270 342.598 270.527 343.536 271.464C344.473 272.402 345 273.674 345 275C345 276.326 344.473 277.598 343.536 278.536C342.598 279.473 341.326 280 340 280H335V270H340Z" fill="#4A4A4A"/>
<path d="M365 270H375V280H365V270Z" fill="#4A4A4A"/>
<path d="M385 270H395V280H385V270Z" fill="#4A4A4A"/>
<path d="M395 270C397.652 270 400.196 271.054 402.071 272.929C403.946 274.804 405 277.348 405 280H395V270Z" fill="#4A4A4A"/>
<path d="M215 280C215 282.652 216.054 285.196 217.929 287.071C219.804 288.946 222.348 290 225 290V280H215Z" fill="#4A4A4A"/>
<path d="M225 280H235V290H225V280Z" fill="#4A4A4A"/>
<path d="M235 280H245V290H235V280Z" fill="#4A4A4A"/>
<path d="M245 280H255V290H245V280Z" fill="#4A4A4A"/>
<path d="M255 280H265V290H255V280Z" fill="#4A4A4A"/>
<path d="M265 280H275V290H265V280Z" fill="#4A4A4A"/>
<path d="M275 290C277.652 290 280.196 288.946 282.071 287.071C283.946 285.196 285 282.652 285 280H275V290Z" fill="#4A4A4A"/>
<path d="M360 280C358.674 280 357.402 280.527 356.464 281.464C355.527 282.402 355 283.674 355 285C355 286.326 355.527 287.598 356.464 288.536C357.402 289.473 358.674 290 360 290H365V280H360Z" fill="#4A4A4A"/>
<path d="M365 280H375V290H365V280Z" fill="#4A4A4A"/>
<path d="M375 280H385V290H375V280Z" fill="#4A4A4A"/>
<path d="M385 280H395V290H385V280Z" fill="#4A4A4A"/>
<path d="M395 290C397.652 290 400.196 288.946 402.071 287.071C403.946 285.196 405 282.652 405 280H395V290Z" fill="#4A4A4A"/>
<path d="M420 280C421.326 280 422.598 280.527 423.536 281.464C424.473 282.402 425 283.674 425 285C425 286.326 424.473 287.598 423.536 288.536C422.598 289.473 421.326 290 420 290C418.674 290 417.402 289.473 416.464 288.536C415.527 287.598 415 286.326 415 285C415 283.674 415.527 282.402 416.464 281.464C417.402 280.527 418.674 280 420 280Z" fill="#4A4A4A"/>
<path d="M215 90C215 87.3478 216.054 84.8043 217.929 82.9289C219.804 81.0536 222.348 80 225 80M215 90H225M215 90V100M225 80V90M225 80H235M225 90H235M225 90V100M235 80V90M235 80H245M235 90H245M245 80V90M245 80H255M245 90H255M255 80V90M255 80H265M255 90H265M265 80V90M265 80H275M265 90H275M275 80V90M275 80C277.652 80 280.196 81.0536 282.071 82.9289C283.946 84.8043 285 87.3478 285 90M275 90H285M275 90V100M285 90V100M305 90C305 87.3478 306.054 84.8043 307.929 82.9289C309.804 81.0536 312.348 80 315 80M305 90H315M305 90C302.348 90 299.804 91.0536 297.929 92.9289C296.054 94.8043 295 97.3478 295 100M305 90V100M315 80V90M315 80H320C321.326 80 322.598 80.5268 323.536 81.4645C324.473 82.4021 325 83.6739 325 85C325 86.3261 324.473 87.5979 323.536 88.5355C322.598 89.4732 321.326 90 320 90H315M315 90C315 92.6522 313.946 95.1957 312.071 97.0711C310.196 98.9464 307.652 100 305 100M345 90V85C345 83.6739 344.473 82.4021 343.536 81.4645C342.598 80.5268 341.326 80 340 80C338.674 80 337.402 80.5268 336.464 81.4645C335.527 82.4021 335 83.6739 335 85V90M345 90H335M345 90V100M335 90V100M335 90H330C328.674 90 327.402 90.5268 326.464 91.4645C325.527 92.4021 325 93.6739 325 95C325 96.3261 325.527 97.5979 326.464 98.5355C327.402 99.4732 328.674 100 330 100H335M355 90C355 87.3478 356.054 84.8043 357.929 82.9289C359.804 81.0536 362.348 80 365 80M355 90H365M355 90V100M365 80V90M365 80H375M365 90H375M365 90V100M375 80V90M375 80H385M375 90H385M385 80V90M385 80H395M385 90H395M395 80V90M395 80H405M395 90H405M405 80V90M405 80H415M405 90H415M415 80V90M415 80C417.652 80 420.196 81.0536 422.071 82.9289C423.946 84.8043 425 87.3478 425 90M415 90H425M415 90V100M425 90V100M225 100H215M225 100V110M215 100V110M285 100H275M285 100V110M275 100V110M295 100H305M295 100V110M305 100V110M335 100H345M335 100V110M345 100V110M365 100H355M365 100V110M355 100V110M425 100H415M425 100V110M415 100V110M225 110H215M225 110V120M215 110V120M235 110C235 107.348 236.054 104.804 237.929 102.929C239.804 101.054 242.348 100 245 100M235 110H245M235 110V120M245 100V110M245 100H255M245 110H255M245 110V120M255 100V110M255 100C257.652 100 260.196 101.054 262.071 102.929C263.946 104.804 265 107.348 265 110M255 110H265M255 110V120M265 110V120M285 110H275M285 110V120M275 110V120M305 110H295M305 110V120M305 110H310C311.326 110 312.598 110.527 313.536 111.464C314.473 112.402 315 113.674 315 115C315 116.326 314.473 117.598 313.536 118.536C312.598 119.473 311.326 120 310 120H305M295 110V120M345 110H335M345 110V120M335 110V120M365 110H355M365 110V120M355 110V120M375 110C375 107.348 376.054 104.804 377.929 102.929C379.804 101.054 382.348 100 385 100M375 110H385M375 110V120M385 100V110M385 100H395M385 110H395M385 110V120M395 100V110M395 100C397.652 100 400.196 101.054 402.071 102.929C403.946 104.804 405 107.348 405 110M395 110H405M395 110V120M405 110V120M425 110H415M425 110V120M415 110V120M225 120H215M225 120V130M215 120V130M245 120H235M245 120H255M245 120V130M235 120C235 122.652 236.054 125.196 237.929 127.071C239.804 128.946 242.348 130 245 130M255 120H265M255 120V130M265 120C265 122.652 263.946 125.196 262.071 127.071C260.196 128.946 257.652 130 255 130M285 120H275M285 120V130M275 120V130M305 120H295M305 120V130M295 120V130M345 120H335M345 120V125C345 126.326 344.473 127.598 343.536 128.536C342.598 129.473 341.326 130 340 130C338.674 130 337.402 129.473 336.464 128.536C335.527 127.598 335 126.326 335 125V120M365 120H355M365 120V130M355 120V130M385 120H375M385 120H395M385 120V130M375 120C375 122.652 376.054 125.196 377.929 127.071C379.804 128.946 382.348 130 385 130M395 120H405M395 120V130M405 120C405 122.652 403.946 125.196 402.071 127.071C400.196 128.946 397.652 130 395 130M425 120H415M425 120V130M415 120V130M225 130H215M225 130V140M215 130V140M245 130H255M285 130H275M285 130V140M275 130V140M305 130H295M305 130V140M295 130V140M365 130H355M365 130V140M355 130V140M385 130H395M425 130H415M425 130V140M415 130V140M225 140H215M225 140V150M225 140H235M215 140C215 142.652 216.054 145.196 217.929 147.071C219.804 148.946 222.348 150 225 150M285 140H275M285 140C285 142.652 283.946 145.196 282.071 147.071C280.196 148.946 277.652 150 275 150M275 140H265M275 140V150M305 140H295M305 140V145C305 146.326 304.473 147.598 303.536 148.536C302.598 149.473 301.326 150 300 150C298.674 150 297.402 149.473 296.464 148.536C295.527 147.598 295 146.326 295 145V140M365 140H355M365 140V150M365 140H375M355 140C355 142.652 356.054 145.196 357.929 147.071C359.804 148.946 362.348 150 365 150M425 140H415M425 140C425 142.652 423.946 145.196 422.071 147.071C420.196 148.946 417.652 150 415 150M415 140H405M415 140V150M225 150H235M235 140V150M235 140H245M235 150H245M245 140V150M245 140H255M245 150H255M255 140V150M255 140H265M255 150H265M265 140V150M265 150H275M365 150H375M375 140V150M375 140H385M375 150H385M385 140V150M385 140H395M385 150H395M395 140V150M395 140H405M395 150H405M405 140V150M405 150H415M245 170V165C245 163.674 244.473 162.402 243.536 161.464C242.598 160.527 241.326 160 240 160C238.674 160 237.402 160.527 236.464 161.464C235.527 162.402 235 163.674 235 165V170M245 170H235M245 170V180M245 170H250C251.326 170 252.598 170.527 253.536 171.464C254.473 172.402 255 173.674 255 175C255 176.326 254.473 177.598 253.536 178.536C252.598 179.473 251.326 180 250 180H245M235 170H225M235 170V180M265 170C265 167.348 266.054 164.804 267.929 162.929C269.804 161.054 272.348 160 275 160M265 170H275M265 170V180M275 160V170M275 160H280C281.326 160 282.598 160.527 283.536 161.464C284.473 162.402 285 163.674 285 165C285 166.326 284.473 167.598 283.536 168.536C282.598 169.473 281.326 170 280 170H275M275 170V180M365 170C365 167.348 366.054 164.804 367.929 162.929C369.804 161.054 372.348 160 375 160M365 170H375M365 170V180M375 160V170M375 160H385M375 170H385M375 170V180M385 160V170M385 160H395M385 170H395M395 160V170M395 160H405M395 170H405M405 160V170M405 160C407.652 160 410.196 161.054 412.071 162.929C413.946 164.804 415 167.348 415 170M405 170H415M405 170C405 172.652 406.054 175.196 407.929 177.071C409.804 178.946 412.348 180 415 180M415 170V180M415 170C417.652 170 420.196 171.054 422.071 172.929C423.946 174.804 425 177.348 425 180M225 180H220C218.674 180 217.402 179.473 216.464 178.536C215.527 177.598 215 176.326 215 175C215 173.674 215.527 172.402 216.464 171.464C217.402 170.527 218.674 170 220 170H225M225 180V170M225 180H235M225 180V185C225 186.326 225.527 187.598 226.464 188.536C227.402 189.473 228.674 190 230 190C231.326 190 232.598 189.473 233.536 188.536C234.473 187.598 235 186.326 235 185V180M235 180H245M275 180H265M275 180V190M275 180H280C281.326 180 282.598 180.527 283.536 181.464C284.473 182.402 285 183.674 285 185C285 186.326 284.473 187.598 283.536 188.536C282.598 189.473 281.326 190 280 190H275M265 180C262.348 180 259.804 181.054 257.929 182.929C256.054 184.804 255 187.348 255 190M265 180V190M375 180H365M375 180V190M375 180H385M365 180V190M415 180H425M415 180V185C415 186.326 415.527 187.598 416.464 188.536C417.402 189.473 418.674 190 420 190C421.326 190 422.598 189.473 423.536 188.536C424.473 187.598 425 186.326 425 185V180M255 190H265M255 190H245M255 190V200M265 190H275M265 190V200M375 190H365M375 190H385M375 190V200M365 190C362.348 190 359.804 191.054 357.929 192.929C356.054 194.804 355 197.348 355 200M365 190V200M385 180V190M385 180C387.652 180 390.196 181.054 392.071 182.929C393.946 184.804 395 187.348 395 190M385 190H395M385 190V195C385 196.326 385.527 197.598 386.464 198.536C387.402 199.473 388.674 200 390 200C391.326 200 392.598 199.473 393.536 198.536C394.473 197.598 395 196.326 395 195V190M235 200C235 197.348 236.054 194.804 237.929 192.929C239.804 191.054 242.348 190 245 190M235 200H245M235 200V205C235 206.326 235.527 207.598 236.464 208.536C237.402 209.473 238.674 210 240 210C241.326 210 242.598 209.473 243.536 208.536C244.473 207.598 245 206.326 245 205V200M245 190V200M245 200H255M255 200H265M255 200V205C255 206.326 255.527 207.598 256.464 208.536C257.402 209.473 258.674 210 260 210C261.326 210 262.598 209.473 263.536 208.536C264.473 207.598 265 206.326 265 205V200M355 200H365M355 200C355 202.652 356.054 205.196 357.929 207.071C359.804 208.946 362.348 210 365 210M365 200H375M365 200V210M375 200V210M375 200H380C381.326 200 382.598 200.527 383.536 201.464C384.473 202.402 385 203.674 385 205C385 206.326 384.473 207.598 383.536 208.536C382.598 209.473 381.326 210 380 210H375M415 200V195C415 193.674 414.473 192.402 413.536 191.464C412.598 190.527 411.326 190 410 190C408.674 190 407.402 190.527 406.464 191.464C405.527 192.402 405 193.674 405 195V200M415 200H405M415 200V210M415 200C417.652 200 420.196 201.054 422.071 202.929C423.946 204.804 425 207.348 425 210M405 200V210M365 210H375M415 210H405M415 210H425M415 210V220M405 210C402.348 210 399.804 211.054 397.929 212.929C396.054 214.804 395 217.348 395 220M405 210V220M425 210V220M395 220H405M395 220V230M395 220H390C388.674 220 387.402 220.527 386.464 221.464C385.527 222.402 385 223.674 385 225C385 226.326 385.527 227.598 386.464 228.536C387.402 229.473 388.674 230 390 230H395M405 220H415M405 220C405 222.652 403.946 225.196 402.071 227.071C400.196 228.946 397.652 230 395 230M415 220H425M415 220V230M425 220V230M215 230C215 227.348 216.054 224.804 217.929 222.929C219.804 221.054 222.348 220 225 220M215 230H225M215 230V240M225 220V230M225 220H235M225 230H235M225 230V240M235 220V230M235 220H245M235 230H245M245 220V230M245 220H255M245 230H255M255 220V230M255 220H265M255 230H265M265 220V230M265 220H275M265 230H275M275 220V230M275 220C277.652 220 280.196 221.054 282.071 222.929C283.946 224.804 285 227.348 285 230M275 230H285M275 230V240M285 230V240M295 230C295 227.348 296.054 224.804 297.929 222.929C299.804 221.054 302.348 220 305 220M295 230H305M295 230C295 232.652 296.054 235.196 297.929 237.071C299.804 238.946 302.348 240 305 240M305 220V230M305 220C307.652 220 310.196 221.054 312.071 222.929C313.946 224.804 315 227.348 315 230M305 230H315M305 230V240M315 230V240M315 230H325M425 230H415M425 230V240M415 230C412.348 230 409.804 231.054 407.929 232.929C406.054 234.804 405 237.348 405 240M415 230V240M225 240H215M225 240V250M215 240V250M285 240H275M285 240V250M275 240V250M305 240H315M315 240H325M315 240C315 242.652 316.054 245.196 317.929 247.071C319.804 248.946 322.348 250 325 250M325 230V240M325 230C327.652 230 330.196 231.054 332.071 232.929C333.946 234.804 335 237.348 335 240M325 240H335M325 240V250M335 240V250M335 240C337.652 240 340.196 241.054 342.071 242.929C343.946 244.804 345 247.348 345 250M355 240H350C348.674 240 347.402 239.473 346.464 238.536C345.527 237.598 345 236.326 345 235C345 233.674 345.527 232.402 346.464 231.464C347.402 230.527 348.674 230 350 230H355M355 240V230M355 240H360C361.326 240 362.598 239.473 363.536 238.536C364.473 237.598 365 236.326 365 235C365 233.674 364.473 232.402 363.536 231.464C362.598 230.527 361.326 230 360 230H355M405 240H415M405 240H395M405 240V250M415 240H425M415 240V250M425 240C425 242.652 423.946 245.196 422.071 247.071C420.196 248.946 417.652 250 415 250M225 250H215M225 250V260M215 250V260M235 250C235 247.348 236.054 244.804 237.929 242.929C239.804 241.054 242.348 240 245 240M235 250H245M235 250V260M245 240V250M245 240H255M245 250H255M245 250V260M255 240V250M255 240C257.652 240 260.196 241.054 262.071 242.929C263.946 244.804 265 247.348 265 250M255 250H265M255 250V260M265 250V260M285 250H275M285 250V260M275 250V260M325 250H335M335 250H345M335 250C335 252.652 336.054 255.196 337.929 257.071C339.804 258.946 342.348 260 345 260M345 250V260M345 250H355M385 250C385 247.348 386.054 244.804 387.929 242.929C389.804 241.054 392.348 240 395 240M385 250H395M385 250V260M395 240V250M395 250H405M395 250V260M405 250H415M405 250C405 252.652 403.946 255.196 402.071 257.071C400.196 258.946 397.652 260 395 260M225 260H215M225 260V270M215 260V270M245 260H235M245 260H255M245 260V270M235 260C235 262.652 236.054 265.196 237.929 267.071C239.804 268.946 242.348 270 245 270M255 260H265M255 260V270M265 260C265 262.652 263.946 265.196 262.071 267.071C260.196 268.946 257.652 270 255 270M285 260H275M285 260V270M275 260V270M345 260H355M345 260V265C345 266.326 345.527 267.598 346.464 268.536C347.402 269.473 348.674 270 350 270C351.326 270 352.598 269.473 353.536 268.536C354.473 267.598 355 266.326 355 265V260M355 250V260M355 250H365M355 260H365M365 250V260M365 250C367.652 250 370.196 251.054 372.071 252.929C373.946 254.804 375 257.348 375 260M365 260H375M365 260V270M375 260V270M375 260H385M395 260H385M395 260V270M385 260V270M225 270H215M225 270V280M215 270V280M245 270H255M285 270H275M285 270V280M275 270V280M305 270H300C298.674 270 297.402 269.473 296.464 268.536C295.527 267.598 295 266.326 295 265C295 263.674 295.527 262.402 296.464 261.464C297.402 260.527 298.674 260 300 260H305M305 270V260M305 270H310C311.326 270 312.598 269.473 313.536 268.536C314.473 267.598 315 266.326 315 265C315 263.674 314.473 262.402 313.536 261.464C312.598 260.527 311.326 260 310 260H305M375 270H365M375 270H385M375 270V280M365 270V280M385 270H395M385 270V280M395 270V280M395 270C397.652 270 400.196 271.054 402.071 272.929C403.946 274.804 405 277.348 405 280M415 270H410C408.674 270 407.402 269.473 406.464 268.536C405.527 267.598 405 266.326 405 265C405 263.674 405.527 262.402 406.464 261.464C407.402 260.527 408.674 260 410 260H415M415 270V260M415 270H420C421.326 270 422.598 269.473 423.536 268.536C424.473 267.598 425 266.326 425 265C425 263.674 424.473 262.402 423.536 261.464C422.598 260.527 421.326 260 420 260H415M225 280H215M225 280V290M225 280H235M215 280C215 282.652 216.054 285.196 217.929 287.071C219.804 288.946 222.348 290 225 290M285 280H275M285 280C285 282.652 283.946 285.196 282.071 287.071C280.196 288.946 277.652 290 275 290M275 280H265M275 280V290M335 280H330C328.674 280 327.402 279.473 326.464 278.536C325.527 277.598 325 276.326 325 275C325 273.674 325.527 272.402 326.464 271.464C327.402 270.527 328.674 270 330 270H335M335 280V270M335 280H340C341.326 280 342.598 279.473 343.536 278.536C344.473 277.598 345 276.326 345 275C345 273.674 344.473 272.402 343.536 271.464C342.598 270.527 341.326 270 340 270H335M375 280H365M375 280V290M375 280H385M365 280V290M365 280H360C358.674 280 357.402 280.527 356.464 281.464C355.527 282.402 355 283.674 355 285C355 286.326 355.527 287.598 356.464 288.536C357.402 289.473 358.674 290 360 290H365M395 280H385M395 280H405M395 280V290M385 280V290M405 280C405 282.652 403.946 285.196 402.071 287.071C400.196 288.946 397.652 290 395 290M225 290H235M235 280V290M235 280H245M235 290H245M245 280V290M245 280H255M245 290H255M255 280V290M255 280H265M255 290H265M265 280V290M265 290H275M365 290H375M375 290H385M385 290H395M330 130C331.326 130 332.598 130.527 333.536 131.464C334.473 132.402 335 133.674 335 135C335 136.326 334.473 137.598 333.536 138.536C332.598 139.473 331.326 140 330 140C328.674 140 327.402 139.473 326.464 138.536C325.527 137.598 325 136.326 325 135C325 133.674 325.527 132.402 326.464 131.464C327.402 130.527 328.674 130 330 130ZM320 140C321.326 140 322.598 140.527 323.536 141.464C324.473 142.402 325 143.674 325 145C325 146.326 324.473 147.598 323.536 148.536C322.598 149.473 321.326 150 320 150C318.674 150 317.402 149.473 316.464 148.536C315.527 147.598 315 146.326 315 145C315 143.674 315.527 142.402 316.464 141.464C317.402 140.527 318.674 140 320 140ZM340 140C341.326 140 342.598 140.527 343.536 141.464C344.473 142.402 345 143.674 345 145C345 146.326 344.473 147.598 343.536 148.536C342.598 149.473 341.326 150 340 150C338.674 150 337.402 149.473 336.464 148.536C335.527 147.598 335 146.326 335 145C335 143.674 335.527 142.402 336.464 141.464C337.402 140.527 338.674 140 340 140ZM220 200C221.326 200 222.598 200.527 223.536 201.464C224.473 202.402 225 203.674 225 205C225 206.326 224.473 207.598 223.536 208.536C222.598 209.473 221.326 210 220 210C218.674 210 217.402 209.473 216.464 208.536C215.527 207.598 215 206.326 215 205C215 203.674 215.527 202.402 216.464 201.464C217.402 200.527 218.674 200 220 200ZM280 200C281.326 200 282.598 200.527 283.536 201.464C284.473 202.402 285 203.674 285 205C285 206.326 284.473 207.598 283.536 208.536C282.598 209.473 281.326 210 280 210C278.674 210 277.402 209.473 276.464 208.536C275.527 207.598 275 206.326 275 205C275 203.674 275.527 202.402 276.464 201.464C277.402 200.527 278.674 200 280 200ZM340 220C341.326 220 342.598 220.527 343.536 221.464C344.473 222.402 345 223.674 345 225C345 226.326 344.473 227.598 343.536 228.536C342.598 229.473 341.326 230 340 230C338.674 230 337.402 229.473 336.464 228.536C335.527 227.598 335 226.326 335 225C335 223.674 335.527 222.402 336.464 221.464C337.402 220.527 338.674 220 340 220ZM380 230C381.326 230 382.598 230.527 383.536 231.464C384.473 232.402 385 233.674 385 235C385 236.326 384.473 237.598 383.536 238.536C382.598 239.473 381.326 240 380 240C378.674 240 377.402 239.473 376.464 238.536C375.527 237.598 375 236.326 375 235C375 233.674 375.527 232.402 376.464 231.464C377.402 230.527 378.674 230 380 230ZM420 280C421.326 280 422.598 280.527 423.536 281.464C424.473 282.402 425 283.674 425 285C425 286.326 424.473 287.598 423.536 288.536C422.598 289.473 421.326 290 420 290C418.674 290 417.402 289.473 416.464 288.536C415.527 287.598 415 286.326 415 285C415 283.674 415.527 282.402 416.464 281.464C417.402 280.527 418.674 280 420 280Z" stroke="#4A4A4A" stroke-width="0.502"/>
<rect y="113" width="250" height="250" rx="6" fill="white"/>
<rect x="25" y="154" width="199" height="10" rx="2" fill="#4A4A4A"/>
<rect x="25" y="176" width="95" height="10" rx="2" fill="#4A4A4A"/>
<rect x="32" y="312" width="185" height="10" rx="2" fill="#4A4A4A"/>
<rect x="25" y="198" width="145" height="10" rx="2" fill="#4A4A4A"/>
<rect x="71" y="272" width="145" height="10" rx="2" fill="#4A4A4A"/>
<path d="M43.3337 286.437V296.333H46.667V286.437C53.2437 287.257 58.3337 292.867 58.3337 299.667H31.667C31.667 296.419 32.8523 293.283 35.0003 290.847C37.1484 288.411 40.1115 286.843 43.3337 286.437V286.437ZM45.0003 284.667C39.4753 284.667 35.0003 280.192 35.0003 274.667C35.0003 269.142 39.4753 264.667 45.0003 264.667C50.5253 264.667 55.0003 269.142 55.0003 274.667C55.0003 280.192 50.5253 284.667 45.0003 284.667Z" fill="#4A4A4A"/>
<circle cx="71" cy="297" r="6" fill="#4A4A4A"/>
<circle cx="91" cy="297" r="6" fill="#4A4A4A"/>
<circle cx="111" cy="297" r="6" fill="#4A4A4A"/>
<circle cx="131" cy="297" r="6" fill="#4A4A4A"/>
<circle cx="151" cy="297" r="6" fill="#4A4A4A"/>
<circle cx="171" cy="297" r="6" fill="#4A4A4A"/>
<circle cx="191" cy="297" r="6" fill="#4A4A4A"/>
<circle cx="211" cy="297" r="6" fill="#4A4A4A"/>
<path d="M330.06 368.879C328.888 367.708 326.989 367.708 325.817 368.879L306.725 387.971C305.554 389.143 305.554 391.042 306.725 392.214C307.897 393.385 309.796 393.385 310.968 392.214L327.938 375.243L344.909 392.214C346.081 393.385 347.98 393.385 349.152 392.214C350.323 391.042 350.323 389.143 349.152 387.971L330.06 368.879ZM177.869 422.612C205.648 450.648 243.787 458.571 275.091 449.058C306.523 439.507 330.938 412.39 330.938 371L324.938 371C324.938 409.611 302.384 434.494 273.347 443.318C244.182 452.18 208.352 444.852 182.131 418.388L177.869 422.612Z" fill="#7A428E"/>
<path d="M153.503 106.546C154.705 107.686 156.604 107.637 157.744 106.435L176.33 86.8498C177.47 85.6479 177.421 83.7491 176.219 82.6086C175.017 81.4681 173.118 81.5178 171.978 82.7196L155.457 100.129L138.048 83.6081C136.846 82.4676 134.947 82.5173 133.807 83.7192C132.666 84.921 132.716 86.8198 133.918 87.9604L153.503 106.546ZM304.235 48.8481C275.732 21.5482 237.398 14.6267 206.354 24.9553C175.183 35.3261 151.486 63.0732 152.569 104.448L158.567 104.291C157.556 65.6937 179.451 40.2292 208.248 30.6485C237.171 21.0256 273.181 27.4129 300.085 53.1812L304.235 48.8481Z" fill="#7A428E"/>
</svg>
