<svg width="541" height="40" viewBox="0 0 541 40" fill="none" xmlns="http://www.w3.org/2000/svg">
<line y1="26.5" x2="135.25" y2="26.5" stroke="#4A4A4A"/>
<line x1="405.75" y1="24.5" x2="541" y2="24.5" stroke="#4A4A4A"/>
<path d="M183.762 29.312V32H170.418V9.824H173.522V29.312H183.762ZM201.133 23.68C201.133 25.0027 200.941 26.1973 200.557 27.264C200.173 28.3307 199.629 29.248 198.925 30.016C198.242 30.784 197.421 31.3813 196.461 31.808C195.501 32.2133 194.455 32.416 193.325 32.416C192.194 32.416 191.149 32.2133 190.189 31.808C189.229 31.3813 188.397 30.784 187.693 30.016C187.01 29.248 186.477 28.3307 186.093 27.264C185.709 26.1973 185.517 25.0027 185.517 23.68C185.517 22.3787 185.709 21.1947 186.093 20.128C186.477 19.04 187.01 18.112 187.693 17.344C188.397 16.576 189.229 15.9893 190.189 15.584C191.149 15.1573 192.194 14.944 193.325 14.944C194.455 14.944 195.501 15.1573 196.461 15.584C197.421 15.9893 198.242 16.576 198.925 17.344C199.629 18.112 200.173 19.04 200.557 20.128C200.941 21.1947 201.133 22.3787 201.133 23.68ZM198.029 23.68C198.029 21.8027 197.602 20.32 196.749 19.232C195.917 18.1227 194.775 17.568 193.325 17.568C191.874 17.568 190.722 18.1227 189.869 19.232C189.037 20.32 188.621 21.8027 188.621 23.68C188.621 25.5573 189.037 27.0507 189.869 28.16C190.722 29.248 191.874 29.792 193.325 29.792C194.775 29.792 195.917 29.248 196.749 28.16C197.602 27.0507 198.029 25.5573 198.029 23.68ZM215.752 30.336C215.496 30.5067 214.994 30.7307 214.248 31.008C213.522 31.264 212.669 31.392 211.688 31.392C210.685 31.392 209.736 31.232 208.84 30.912C207.965 30.592 207.197 30.1013 206.536 29.44C205.874 28.7573 205.352 27.9147 204.968 26.912C204.584 25.9093 204.392 24.7147 204.392 23.328C204.392 22.112 204.573 21.0027 204.936 20C205.298 18.976 205.821 18.1013 206.504 17.376C207.208 16.6293 208.061 16.0533 209.064 15.648C210.066 15.2213 211.197 15.008 212.456 15.008C213.842 15.008 215.048 15.1147 216.072 15.328C217.117 15.52 217.992 15.7013 218.696 15.872V30.72C218.696 33.28 218.034 35.136 216.712 36.288C215.389 37.44 213.384 38.016 210.696 38.016C209.65 38.016 208.658 37.9307 207.72 37.76C206.802 37.5893 206.002 37.3867 205.32 37.152L205.864 34.56C206.461 34.7947 207.186 34.9973 208.04 35.168C208.914 35.36 209.821 35.456 210.76 35.456C212.53 35.456 213.8 35.104 214.568 34.4C215.357 33.696 215.752 32.576 215.752 31.04V30.336ZM215.72 17.984C215.421 17.8987 215.016 17.824 214.504 17.76C214.013 17.6747 213.341 17.632 212.488 17.632C210.888 17.632 209.65 18.1547 208.776 19.2C207.922 20.2453 207.496 21.632 207.496 23.36C207.496 24.32 207.613 25.1413 207.848 25.824C208.104 26.5067 208.434 27.072 208.84 27.52C209.266 27.968 209.746 28.2987 210.28 28.512C210.834 28.7253 211.4 28.832 211.976 28.832C212.765 28.832 213.49 28.7253 214.152 28.512C214.813 28.2773 215.336 28.0107 215.72 27.712V17.984ZM226.796 32H223.82V15.36H226.796V32ZM225.292 12.352C224.758 12.352 224.3 12.1813 223.916 11.84C223.553 11.4773 223.372 10.9973 223.372 10.4C223.372 9.80267 223.553 9.33333 223.916 8.992C224.3 8.62933 224.758 8.448 225.292 8.448C225.825 8.448 226.273 8.62933 226.636 8.992C227.02 9.33333 227.212 9.80267 227.212 10.4C227.212 10.9973 227.02 11.4773 226.636 11.84C226.273 12.1813 225.825 12.352 225.292 12.352ZM231.914 15.84C232.596 15.6693 233.503 15.488 234.634 15.296C235.764 15.104 237.066 15.008 238.538 15.008C239.86 15.008 240.959 15.2 241.834 15.584C242.708 15.9467 243.402 16.4693 243.914 17.152C244.447 17.8133 244.82 18.6133 245.034 19.552C245.247 20.4907 245.354 21.5253 245.354 22.656V32H242.378V23.296C242.378 22.272 242.303 21.3973 242.154 20.672C242.026 19.9467 241.802 19.36 241.482 18.912C241.162 18.464 240.735 18.144 240.202 17.952C239.668 17.7387 239.007 17.632 238.218 17.632C237.898 17.632 237.567 17.6427 237.226 17.664C236.884 17.6853 236.554 17.7173 236.234 17.76C235.935 17.7813 235.658 17.8133 235.402 17.856C235.167 17.8987 234.996 17.9307 234.89 17.952V32H231.914V15.84ZM260.479 15.36H266.783V17.856H260.479V25.536C260.479 26.368 260.543 27.0613 260.671 27.616C260.799 28.1493 260.991 28.576 261.247 28.896C261.503 29.1947 261.823 29.408 262.207 29.536C262.591 29.664 263.039 29.728 263.551 29.728C264.447 29.728 265.161 29.632 265.695 29.44C266.249 29.2267 266.633 29.0773 266.847 28.992L267.423 31.456C267.124 31.6053 266.601 31.7867 265.855 32C265.108 32.2347 264.255 32.352 263.295 32.352C262.164 32.352 261.225 32.2133 260.479 31.936C259.753 31.6373 259.167 31.2 258.719 30.624C258.271 30.048 257.951 29.344 257.759 28.512C257.588 27.6587 257.503 26.6773 257.503 25.568V10.72L260.479 10.208V15.36ZM284.82 23.68C284.82 25.0027 284.628 26.1973 284.244 27.264C283.86 28.3307 283.316 29.248 282.612 30.016C281.93 30.784 281.108 31.3813 280.148 31.808C279.188 32.2133 278.143 32.416 277.012 32.416C275.882 32.416 274.836 32.2133 273.876 31.808C272.916 31.3813 272.084 30.784 271.38 30.016C270.698 29.248 270.164 28.3307 269.78 27.264C269.396 26.1973 269.204 25.0027 269.204 23.68C269.204 22.3787 269.396 21.1947 269.78 20.128C270.164 19.04 270.698 18.112 271.38 17.344C272.084 16.576 272.916 15.9893 273.876 15.584C274.836 15.1573 275.882 14.944 277.012 14.944C278.143 14.944 279.188 15.1573 280.148 15.584C281.108 15.9893 281.93 16.576 282.612 17.344C283.316 18.112 283.86 19.04 284.244 20.128C284.628 21.1947 284.82 22.3787 284.82 23.68ZM281.716 23.68C281.716 21.8027 281.29 20.32 280.436 19.232C279.604 18.1227 278.463 17.568 277.012 17.568C275.562 17.568 274.41 18.1227 273.556 19.232C272.724 20.32 272.308 21.8027 272.308 23.68C272.308 25.5573 272.724 27.0507 273.556 28.16C274.41 29.248 275.562 29.792 277.012 29.792C278.463 29.792 279.604 29.248 280.436 28.16C281.29 27.0507 281.716 25.5573 281.716 23.68ZM295.71 20.896C295.71 18.9973 295.987 17.3227 296.542 15.872C297.118 14.4213 297.886 13.216 298.846 12.256C299.827 11.2747 300.958 10.5387 302.238 10.048C303.539 9.55733 304.915 9.312 306.366 9.312C307.795 9.312 309.139 9.55733 310.398 10.048C311.678 10.5387 312.798 11.2747 313.758 12.256C314.718 13.216 315.475 14.4213 316.03 15.872C316.606 17.3227 316.894 18.9973 316.894 20.896C316.894 22.56 316.68 24.0427 316.254 25.344C315.827 26.6453 315.23 27.776 314.462 28.736C313.715 29.6747 312.83 30.4427 311.806 31.04C310.803 31.616 309.726 32.0107 308.574 32.224C308.595 32.7147 308.808 33.1413 309.214 33.504C309.64 33.888 310.174 34.208 310.814 34.464C311.454 34.72 312.168 34.9333 312.958 35.104C313.747 35.2747 314.536 35.4027 315.326 35.488L314.59 37.92C313.48 37.7707 312.414 37.568 311.39 37.312C310.387 37.0773 309.47 36.7573 308.638 36.352C307.827 35.9467 307.144 35.424 306.59 34.784C306.035 34.1653 305.662 33.3867 305.47 32.448C304.126 32.3627 302.856 32.0533 301.662 31.52C300.467 30.9653 299.432 30.208 298.558 29.248C297.683 28.2667 296.99 27.0827 296.478 25.696C295.966 24.3093 295.71 22.7093 295.71 20.896ZM298.974 20.896C298.974 22.24 299.144 23.4667 299.486 24.576C299.827 25.664 300.307 26.592 300.926 27.36C301.566 28.128 302.334 28.7253 303.23 29.152C304.147 29.5573 305.171 29.76 306.302 29.76C307.432 29.76 308.446 29.5573 309.342 29.152C310.238 28.7253 310.995 28.128 311.614 27.36C312.254 26.592 312.744 25.664 313.086 24.576C313.427 23.4667 313.598 22.24 313.598 20.896C313.598 19.552 313.427 18.336 313.086 17.248C312.744 16.1387 312.254 15.2 311.614 14.432C310.995 13.664 310.238 13.0773 309.342 12.672C308.446 12.2453 307.432 12.032 306.302 12.032C305.171 12.032 304.147 12.2453 303.23 12.672C302.334 13.0773 301.566 13.664 300.926 14.432C300.307 15.2 299.827 16.1387 299.486 17.248C299.144 18.336 298.974 19.552 298.974 20.896ZM332.36 22.72C332.701 23.1467 333.128 23.712 333.64 24.416C334.173 25.0987 334.717 25.8667 335.272 26.72C335.826 27.552 336.37 28.4267 336.904 29.344C337.458 30.2613 337.928 31.1467 338.312 32H334.92C334.493 31.1893 334.024 30.368 333.512 29.536C333.021 28.704 332.52 27.9147 332.008 27.168C331.496 26.4 330.984 25.6853 330.472 25.024C329.981 24.3627 329.533 23.7867 329.128 23.296C328.85 23.3173 328.562 23.328 328.264 23.328C327.986 23.328 327.698 23.328 327.4 23.328H324.616V32H321.512V10.144C322.386 9.93067 323.357 9.792 324.424 9.728C325.512 9.64267 326.504 9.6 327.4 9.6C330.514 9.6 332.882 10.1867 334.504 11.36C336.146 12.5333 336.968 14.2827 336.968 16.608C336.968 18.08 336.573 19.3387 335.784 20.384C335.016 21.4293 333.874 22.208 332.36 22.72ZM327.656 12.32C326.333 12.32 325.32 12.352 324.616 12.416V20.768H326.824C327.89 20.768 328.85 20.7147 329.704 20.608C330.557 20.5013 331.272 20.2987 331.848 20C332.445 19.7013 332.904 19.2853 333.224 18.752C333.544 18.1973 333.704 17.472 333.704 16.576C333.704 15.744 333.544 15.0507 333.224 14.496C332.904 13.9413 332.466 13.504 331.912 13.184C331.378 12.864 330.738 12.64 329.992 12.512C329.266 12.384 328.488 12.32 327.656 12.32ZM355.543 32C355.223 31.36 354.839 30.656 354.391 29.888C353.943 29.0987 353.452 28.288 352.919 27.456C352.385 26.6027 351.831 25.76 351.255 24.928C350.679 24.0747 350.124 23.2747 349.591 22.528C349.057 23.2747 348.503 24.0747 347.927 24.928C347.351 25.76 346.796 26.6027 346.263 27.456C345.751 28.288 345.26 29.0987 344.791 29.888C344.343 30.656 343.959 31.36 343.639 32H340.215C341.175 30.1227 342.284 28.2133 343.543 26.272C344.823 24.3307 346.177 22.336 347.607 20.288L340.503 9.824H344.087L349.559 18.08L354.967 9.824H358.519L351.543 20.16C352.993 22.2293 354.359 24.2453 355.639 26.208C356.919 28.1707 358.049 30.1013 359.031 32H355.543Z" fill="#4A4A4A"/>
</svg>
