<svg width="60" height="53" viewBox="0 0 60 53" fill="none" xmlns="http://www.w3.org/2000/svg">
<path d="M45 44.75C45 48.8938 40.8 52.25 35.625 52.25C30.45 52.25 26.25 48.8938 26.25 44.75C26.25 40.6062 30.45 37.25 35.625 37.25C40.8 37.25 45 40.6062 45 44.75Z" fill="#7A428E"/>
<path fill-rule="evenodd" clip-rule="evenodd" d="M45 7.25V44.75H41.25V7.25H45Z" fill="#7A428E"/>
<path d="M41.25 6.57488C41.2505 5.70829 41.5512 4.86862 42.1008 4.19864C42.6505 3.52867 43.4152 3.06974 44.265 2.89988L55.515 0.649884C56.0588 0.541184 56.62 0.554462 57.1581 0.688761C57.6962 0.82306 58.1978 1.07504 58.6268 1.42654C59.0557 1.77804 59.4014 2.22031 59.6389 2.7215C59.8763 3.22268 59.9997 3.77029 60 4.32488V10.9999L41.25 14.7499V6.57488Z" fill="#7A428E"/>
<path fill-rule="evenodd" clip-rule="evenodd" d="M0 39.125C0 38.6277 0.197544 38.1508 0.549175 37.7992C0.900806 37.4475 1.37772 37.25 1.875 37.25H15C15.4973 37.25 15.9742 37.4475 16.3258 37.7992C16.6775 38.1508 16.875 38.6277 16.875 39.125C16.875 39.6223 16.6775 40.0992 16.3258 40.4508C15.9742 40.8025 15.4973 41 15 41H1.875C1.37772 41 0.900806 40.8025 0.549175 40.4508C0.197544 40.0992 0 39.6223 0 39.125ZM0 24.125C0 23.6277 0.197544 23.1508 0.549175 22.7992C0.900806 22.4475 1.37772 22.25 1.875 22.25H30C30.4973 22.25 30.9742 22.4475 31.3258 22.7992C31.6775 23.1508 31.875 23.6277 31.875 24.125C31.875 24.6223 31.6775 25.0992 31.3258 25.4508C30.9742 25.8025 30.4973 26 30 26H1.875C1.37772 26 0.900806 25.8025 0.549175 25.4508C0.197544 25.0992 0 24.6223 0 24.125ZM0 9.125C0 8.62772 0.197544 8.15081 0.549175 7.79918C0.900806 7.44754 1.37772 7.25 1.875 7.25H30C30.4973 7.25 30.9742 7.44754 31.3258 7.79918C31.6775 8.15081 31.875 8.62772 31.875 9.125C31.875 9.62228 31.6775 10.0992 31.3258 10.4508C30.9742 10.8025 30.4973 11 30 11H1.875C1.37772 11 0.900806 10.8025 0.549175 10.4508C0.197544 10.0992 0 9.62228 0 9.125Z" fill="#7A428E"/>
</svg>
