<svg width="320" height="320" viewBox="0 0 320 320" fill="none" xmlns="http://www.w3.org/2000/svg">
<path d="M40 40H80V80H40V40Z" fill="#B3B3B3"/>
<path d="M120 0V120H0V0H120ZM100 20H20V100H100V20ZM80 240H40V280H80V240Z" fill="#B3B3B3"/>
<path d="M120 200V320H0V200H120ZM20 220V300H100V220H20ZM240 40H280V80H240V40Z" fill="#B3B3B3"/>
<path d="M200 0V120H320V0H200ZM300 20V100H220V20H300ZM160 20V0H180V40H160V80H140V20H160ZM160 120V80H180V120H160ZM120 160V140H140V120H160V160H180V140H280V160H200V180H140V160H120ZM120 160V180H40V160H20V180H0V140H60V160H120ZM320 180H300V140H320V180ZM300 180H280V220H320V200H300V180ZM220 180H260V200H240V220H220V180ZM260 240V220H240V240H220V260H180V280H240V240H260ZM260 240H320V260H280V280H260V240ZM180 220V240H200V200H140V220H180Z" fill="#B3B3B3"/>
<path d="M140 240H160V300H240V320H140V240ZM320 280V320H260V300H300V280H320Z" fill="#B3B3B3"/>
</svg>
