<svg width="60" height="60" viewBox="0 0 60 60" fill="none" xmlns="http://www.w3.org/2000/svg">
<path d="M20.625 25.3124H39.375C40.4109 25.3124 41.25 24.4733 41.25 23.4374V21.5624C41.25 20.5264 40.4109 19.6874 39.375 19.6874H20.625C19.5891 19.6874 18.75 20.5264 18.75 21.5624V23.4374C18.75 24.4733 19.5891 25.3124 20.625 25.3124ZM18.75 34.6874C18.75 35.7233 19.5891 36.5624 20.625 36.5624H39.375C40.4109 36.5624 41.25 35.7233 41.25 34.6874V32.8124C41.25 31.7764 40.4109 30.9374 39.375 30.9374H20.625C19.5891 30.9374 18.75 31.7764 18.75 32.8124V34.6874ZM30 48.8823C28.0758 48.8823 26.1516 48.2893 24.5086 47.1022L0 29.3975V54.3749C0 57.4815 2.51836 59.9999 5.625 59.9999H54.375C57.4816 59.9999 60 57.4815 60 54.3749V29.3975L35.4914 47.1022C33.8484 48.2882 31.9242 48.8823 30 48.8823ZM57.8449 19.0956C56.8078 18.2823 55.8246 17.5171 54.375 16.4225V11.2499C54.375 8.14323 51.8566 5.62487 48.75 5.62487H39.6621C39.3059 5.36706 38.9742 5.12565 38.6027 4.85612C36.6328 3.41823 32.7188 -0.0411423 30 -0.000126714C27.2812 -0.0411423 23.3684 3.41823 21.3973 4.85612C21.0258 5.12565 20.6941 5.36706 20.3379 5.62487H11.25C8.14336 5.62487 5.625 8.14323 5.625 11.2499V16.4225C4.17539 17.5159 3.19219 18.2823 2.15508 19.0956C1.48378 19.6217 0.940916 20.2935 0.567555 21.0604C0.194195 21.8272 0.000115524 22.6689 0 23.5217L0 24.7698L11.25 32.8967V11.2499H48.75V32.8967L60 24.7698V23.5217C60 21.7944 59.2055 20.162 57.8449 19.0956Z" fill="#7A428E"/>
</svg>
