<svg width="30" height="25" viewBox="0 0 30 25" fill="none" xmlns="http://www.w3.org/2000/svg">
<path d="M0 2.375C0 1.87772 0.197544 1.40081 0.549175 1.04917C0.900805 0.697544 1.37772 0.5 1.875 0.5H28.125C28.6223 0.5 29.0992 0.697544 29.4508 1.04917C29.8025 1.40081 30 1.87772 30 2.375C30 2.87228 29.8025 3.34919 29.4508 3.70083C29.0992 4.05246 28.6223 4.25 28.125 4.25H1.875C1.37772 4.25 0.900805 4.05246 0.549175 3.70083C0.197544 3.34919 0 2.87228 0 2.375ZM0 12.375C0 11.8777 0.197544 11.4008 0.549175 11.0492C0.900805 10.6975 1.37772 10.5 1.875 10.5H28.125C28.6223 10.5 29.0992 10.6975 29.4508 11.0492C29.8025 11.4008 30 11.8777 30 12.375C30 12.8723 29.8025 13.3492 29.4508 13.7008C29.0992 14.0525 28.6223 14.25 28.125 14.25H1.875C1.37772 14.25 0.900805 14.0525 0.549175 13.7008C0.197544 13.3492 0 12.8723 0 12.375ZM0 22.375C0 21.8777 0.197544 21.4008 0.549175 21.0492C0.900805 20.6975 1.37772 20.5 1.875 20.5H28.125C28.6223 20.5 29.0992 20.6975 29.4508 21.0492C29.8025 21.4008 30 21.8777 30 22.375C30 22.8723 29.8025 23.3492 29.4508 23.7008C29.0992 24.0525 28.6223 24.25 28.125 24.25H1.875C1.37772 24.25 0.900805 24.0525 0.549175 23.7008C0.197544 23.3492 0 22.8723 0 22.375Z" fill="white"/>
</svg>
