<svg width="330" height="330" viewBox="0 0 330 330" fill="none" xmlns="http://www.w3.org/2000/svg">
<path d="M41.25 41.25H82.5V82.5H41.25V41.25Z" fill="#B3B3B3"/>
<path d="M123.75 0V123.75H0V0H123.75ZM103.125 20.625H20.625V103.125H103.125V20.625ZM82.5 247.5H41.25V288.75H82.5V247.5Z" fill="#B3B3B3"/>
<path d="M123.75 206.25V330H0V206.25H123.75ZM20.625 226.875V309.375H103.125V226.875H20.625ZM247.5 41.25H288.75V82.5H247.5V41.25Z" fill="#B3B3B3"/>
<path d="M206.25 0V123.75H330V0H206.25ZM309.375 20.625V103.125H226.875V20.625H309.375ZM165 20.625V0H185.625V41.25H165V82.5H144.375V20.625H165ZM165 123.75V82.5H185.625V123.75H165ZM123.75 165V144.375H144.375V123.75H165V165H185.625V144.375H288.75V165H206.25V185.625H144.375V165H123.75ZM123.75 165V185.625H41.25V165H20.625V185.625H0V144.375H61.875V165H123.75ZM330 185.625H309.375V144.375H330V185.625ZM309.375 185.625H288.75V226.875H330V206.25H309.375V185.625ZM226.875 185.625H268.125V206.25H247.5V226.875H226.875V185.625ZM268.125 247.5V226.875H247.5V247.5H226.875V268.125H185.625V288.75H247.5V247.5H268.125ZM268.125 247.5H330V268.125H288.75V288.75H268.125V247.5ZM185.625 226.875V247.5H206.25V206.25H144.375V226.875H185.625Z" fill="#B3B3B3"/>
<path d="M144.375 247.5H165V309.375H247.5V330H144.375V247.5ZM330 288.75V330H268.125V309.375H309.375V288.75H330Z" fill="#B3B3B3"/>
</svg>
