<svg width="60" height="61" viewBox="0 0 60 61" fill="none" xmlns="http://www.w3.org/2000/svg">
<path d="M46.5 27.1494C39.0384 27.1494 33 34.6975 33 44.0244C33 53.3514 39.0384 60.8994 46.5 60.8994C53.9616 60.8994 60 53.3514 60 44.0244C60 34.6975 53.9616 27.1494 46.5 27.1494ZM52.5 44.7615C52.5 45.3873 52.0903 45.8994 51.5897 45.8994H45.9113C45.4106 45.8994 45.0009 45.3873 45.0009 44.7615V35.7885C45.0009 35.1627 45.4106 34.6506 45.9113 34.6506H47.0897C47.5903 34.6506 48 35.1627 48 35.7885V42.1494H51.5897C52.0903 42.1494 52.5 42.6615 52.5 43.2873V44.7615ZM46.5 23.3994C47.0063 23.3994 47.505 23.4381 48 23.4943V17.7744C48 14.7744 45.9 12.1494 43.5 12.1494H36V6.52441C36 3.52441 33.9 0.899414 31.5 0.899414H16.5C14.1 0.899414 12 3.52441 12 6.52441V12.1494H4.5C2.1 12.1494 0 14.7744 0 17.7744V27.1494H37.0425C39.7237 24.7951 42.9816 23.3994 46.5 23.3994ZM30 12.1494H18V8.39941H30V12.1494ZM30.6394 38.3994H19.5C18.6712 38.3994 18 37.5604 18 36.5244V30.8994H0V47.7744C0 50.7744 2.1 53.3994 4.5 53.3994H31.8216C30.6656 50.5822 30 47.4018 30 44.0244C30 42.0721 30.2325 40.19 30.6394 38.3994Z" fill="#7A428E"/>
</svg>
