<svg width="60" height="48" viewBox="0 0 60 48" fill="none" xmlns="http://www.w3.org/2000/svg">
<path d="M57 0H15C14.2044 0 13.4413 0.316071 12.8787 0.87868C12.3161 1.44129 12 2.20435 12 3V12H27V6H45V36H57C57.7957 36 58.5587 35.6839 59.1213 35.1213C59.6839 34.5587 60 33.7957 60 33V3C60 2.20435 59.6839 1.44129 59.1213 0.87868C58.5587 0.316071 57.7957 0 57 0V0ZM21.75 9.65625C21.75 9.88003 21.6611 10.0946 21.5029 10.2529C21.3446 10.4111 21.13 10.5 20.9062 10.5H18.0938C17.87 10.5 17.6554 10.4111 17.4971 10.2529C17.3389 10.0946 17.25 9.88003 17.25 9.65625V6.84375C17.25 6.61997 17.3389 6.40536 17.4971 6.24713C17.6554 6.08889 17.87 6 18.0938 6H20.9062C21.13 6 21.3446 6.08889 21.5029 6.24713C21.6611 6.40536 21.75 6.61997 21.75 6.84375V9.65625ZM54.75 29.1562C54.75 29.38 54.6611 29.5946 54.5029 29.7529C54.3446 29.9111 54.13 30 53.9062 30H51.0938C50.87 30 50.6554 29.9111 50.4971 29.7529C50.3389 29.5946 50.25 29.38 50.25 29.1562V26.3438C50.25 26.12 50.3389 25.9054 50.4971 25.7471C50.6554 25.5889 50.87 25.5 51.0938 25.5H53.9062C54.13 25.5 54.3446 25.5889 54.5029 25.7471C54.6611 25.9054 54.75 26.12 54.75 26.3438V29.1562ZM54.75 19.4062C54.75 19.63 54.6611 19.8446 54.5029 20.0029C54.3446 20.1611 54.13 20.25 53.9062 20.25H51.0938C50.87 20.25 50.6554 20.1611 50.4971 20.0029C50.3389 19.8446 50.25 19.63 50.25 19.4062V16.5938C50.25 16.37 50.3389 16.1554 50.4971 15.9971C50.6554 15.8389 50.87 15.75 51.0938 15.75H53.9062C54.13 15.75 54.3446 15.8389 54.5029 15.9971C54.6611 16.1554 54.75 16.37 54.75 16.5938V19.4062ZM54.75 9.65625C54.75 9.88003 54.6611 10.0946 54.5029 10.2529C54.3446 10.4111 54.13 10.5 53.9062 10.5H51.0938C50.87 10.5 50.6554 10.4111 50.4971 10.2529C50.3389 10.0946 50.25 9.88003 50.25 9.65625V6.84375C50.25 6.61997 50.3389 6.40536 50.4971 6.24713C50.6554 6.08889 50.87 6 51.0938 6H53.9062C54.13 6 54.3446 6.08889 54.5029 6.24713C54.6611 6.40536 54.75 6.61997 54.75 6.84375V9.65625ZM39 15H3C2.20435 15 1.44129 15.3161 0.87868 15.8787C0.316071 16.4413 0 17.2044 0 18L0 45C0 45.7957 0.316071 46.5587 0.87868 47.1213C1.44129 47.6839 2.20435 48 3 48H39C39.7957 48 40.5587 47.6839 41.1213 47.1213C41.6839 46.5587 42 45.7957 42 45V18C42 17.2044 41.6839 16.4413 41.1213 15.8787C40.5587 15.3161 39.7957 15 39 15ZM9 21C9.59334 21 10.1734 21.1759 10.6667 21.5056C11.1601 21.8352 11.5446 22.3038 11.7716 22.8519C11.9987 23.4001 12.0581 24.0033 11.9424 24.5853C11.8266 25.1672 11.5409 25.7018 11.1213 26.1213C10.7018 26.5409 10.1672 26.8266 9.58527 26.9424C9.00333 27.0581 8.40013 26.9987 7.85195 26.7716C7.30377 26.5446 6.83524 26.1601 6.50559 25.6667C6.17595 25.1734 6 24.5933 6 24C6 23.2044 6.31607 22.4413 6.87868 21.8787C7.44129 21.3161 8.20435 21 9 21ZM36 42H6V39L12 33L15 36L27 24L36 33V42Z" fill="#7A428E"/>
</svg>
