<svg width="60" height="60" viewBox="0 0 60 60" fill="none" xmlns="http://www.w3.org/2000/svg">
<path d="M38.2749 21.7255C45.2765 28.7344 45.1804 39.9713 38.3171 46.8727C38.3042 46.8868 38.289 46.902 38.2749 46.9161L30.3999 54.7911C23.4542 61.7368 12.1539 61.7358 5.20928 54.7911C-1.73643 47.8466 -1.73643 36.545 5.20928 29.6005L9.55764 25.2522C10.7108 24.099 12.6966 24.8654 12.7562 26.495C12.8321 28.5718 13.2045 30.6584 13.8917 32.6733C14.1244 33.3555 13.9581 34.1102 13.4484 34.62L11.9147 36.1536C8.63045 39.4379 8.52744 44.7856 11.7794 48.102C15.0635 51.4511 20.4614 51.4711 23.7706 48.1618L31.6456 40.288C34.9492 36.9844 34.9354 31.6446 31.6456 28.3548C31.2119 27.9219 30.775 27.5856 30.4338 27.3506C30.1924 27.1849 29.993 26.9649 29.8517 26.7085C29.7103 26.452 29.6309 26.166 29.6197 25.8734C29.5733 24.635 30.012 23.359 30.9905 22.3805L33.4578 19.9131C34.1048 19.2661 35.1198 19.1867 35.87 19.7103C36.7292 20.3102 37.5339 20.9846 38.2749 21.7255ZM54.7907 5.20892C47.8461 -1.73584 36.5458 -1.73677 29.6001 5.20892L21.7251 13.0839C21.711 13.098 21.6958 13.1132 21.6829 13.1273C14.8197 20.0287 14.7235 31.2656 21.7251 38.2745C22.4661 39.0154 23.2708 39.6897 24.1299 40.2896C24.8801 40.8132 25.8952 40.7337 26.5421 40.0868L29.0094 37.6194C29.9879 36.6409 30.4266 35.3648 30.3802 34.1265C30.369 33.8339 30.2896 33.5479 30.1482 33.2914C30.0069 33.0349 29.8075 32.815 29.5661 32.6493C29.2249 32.4143 28.788 32.078 28.3543 31.6451C25.0645 28.3553 25.0506 23.0155 28.3543 19.7119L36.2293 11.8381C39.5385 8.52883 44.9363 8.54875 48.2205 11.8978C51.4725 15.2142 51.3696 20.562 48.0851 23.8463L46.5515 25.3799C46.0418 25.8897 45.8755 26.6443 46.1082 27.3266C46.7954 29.3415 47.1678 31.428 47.2437 33.5048C47.3034 35.1344 49.2891 35.9008 50.4423 34.7477L54.7906 30.3994C61.7364 23.455 61.7364 12.1534 54.7907 5.20892Z" fill="#7A428E"/>
</svg>
