<svg width="28" height="26" viewBox="0 0 28 26" fill="none" xmlns="http://www.w3.org/2000/svg">
<path d="M6.60666 21.3333L0.666656 26V1.33333C0.666656 0.979711 0.807132 0.640573 1.05718 0.390524C1.30723 0.140476 1.64637 0 1.99999 0H26C26.3536 0 26.6927 0.140476 26.9428 0.390524C27.1928 0.640573 27.3333 0.979711 27.3333 1.33333V20C27.3333 20.3536 27.1928 20.6928 26.9428 20.9428C26.6927 21.1929 26.3536 21.3333 26 21.3333H6.60666ZM7.33332 9.33333V12H9.99999V9.33333H7.33332ZM12.6667 9.33333V12H15.3333V9.33333H12.6667ZM18 9.33333V12H20.6667V9.33333H18Z" fill="white"/>
</svg>
