<svg width="60" height="60" viewBox="0 0 60 60" fill="none" xmlns="http://www.w3.org/2000/svg">
<path d="M58.3333 26.25H55.2602C54.3435 23.9062 53.0101 21.832 51.3642 20.0977L53.3331 11.25H49.9996C46.937 11.25 44.2285 12.832 42.3951 15.2695C41.6034 15.1406 40.8222 15 39.9992 15H26.6654C18.6025 15 11.8835 21.4453 10.3314 30H5.83121C4.28949 30 3.07069 28.418 3.3832 26.625C3.61238 25.2891 4.727 24.375 5.93538 24.375H6.03955C6.38332 24.375 6.66458 24.0586 6.66458 23.6719V21.3281C6.66458 20.9414 6.38332 20.625 6.03955 20.625C3.07069 20.625 0.424752 23.0156 0.049737 26.3203C-0.408614 30.3281 2.36233 33.75 5.83121 33.75H9.99804C9.99804 39.8672 12.644 45.2461 16.665 48.668V58.125C16.665 59.1562 17.415 60 18.3317 60H24.9986C25.9153 60 26.6654 59.1562 26.6654 58.125V52.5H39.9992V58.125C39.9992 59.1562 40.7492 60 41.6659 60H48.3329C49.2496 60 49.9996 59.1562 49.9996 58.125V48.668C51.2288 47.625 52.3226 46.3945 53.2601 45H58.3333C59.25 45 60 44.1562 60 43.125V28.125C60 27.0938 59.25 26.25 58.3333 26.25ZM44.9994 33.75C44.0827 33.75 43.3327 32.9062 43.3327 31.875C43.3327 30.8438 44.0827 30 44.9994 30C45.9161 30 46.6661 30.8438 46.6661 31.875C46.6661 32.9062 45.9161 33.75 44.9994 33.75ZM26.6654 11.25H39.9992C40.5617 11.25 41.1138 11.2969 41.6555 11.3438C41.6555 11.3086 41.6659 11.2852 41.6659 11.25C41.6659 5.03906 37.1866 0 31.6656 0C26.1445 0 21.6652 5.03906 21.6652 11.25C21.6652 11.4961 21.7173 11.7305 21.7277 11.9766C23.3111 11.5195 24.957 11.25 26.6654 11.25Z" fill="#7A428E"/>
</svg>
