<svg width="60" height="60" viewBox="0 0 60 60" fill="none" xmlns="http://www.w3.org/2000/svg">
<path d="M55 0H5C2.23958 0 0 2.87946 0 6.42857V53.5714C0 57.1205 2.23958 60 5 60H55C57.7604 60 60 57.1205 60 53.5714V6.42857C60 2.87946 57.7604 0 55 0ZM18.3333 12.8571C22.0104 12.8571 25 16.7009 25 21.4286C25 26.1562 22.0104 30 18.3333 30C14.6562 30 11.6667 26.1562 11.6667 21.4286C11.6667 16.7009 14.6562 12.8571 18.3333 12.8571ZM30 44.5714C30 45.9911 28.9583 47.1429 27.6667 47.1429H9C7.70833 47.1429 6.66667 45.9911 6.66667 44.5714V42C6.66667 37.7411 9.80208 34.2857 13.6667 34.2857H14.1875C15.4687 34.9688 16.8646 35.3571 18.3333 35.3571C19.8021 35.3571 21.2083 34.9688 22.4792 34.2857H23C26.8646 34.2857 30 37.7411 30 42V44.5714ZM53.3333 37.5C53.3333 38.0893 52.9583 38.5714 52.5 38.5714H37.5C37.0417 38.5714 36.6667 38.0893 36.6667 37.5V35.3571C36.6667 34.7679 37.0417 34.2857 37.5 34.2857H52.5C52.9583 34.2857 53.3333 34.7679 53.3333 35.3571V37.5ZM53.3333 28.9286C53.3333 29.5179 52.9583 30 52.5 30H37.5C37.0417 30 36.6667 29.5179 36.6667 28.9286V26.7857C36.6667 26.1964 37.0417 25.7143 37.5 25.7143H52.5C52.9583 25.7143 53.3333 26.1964 53.3333 26.7857V28.9286ZM53.3333 20.3571C53.3333 20.9464 52.9583 21.4286 52.5 21.4286H37.5C37.0417 21.4286 36.6667 20.9464 36.6667 20.3571V18.2143C36.6667 17.625 37.0417 17.1429 37.5 17.1429H52.5C52.9583 17.1429 53.3333 17.625 53.3333 18.2143V20.3571Z" fill="#7A428E"/>
</svg>
