<svg width="100" height="100" viewBox="0 0 100 100" fill="none" xmlns="http://www.w3.org/2000/svg">
<circle cx="50" cy="50" r="50" fill="#E5D3FE"/>
<path d="M22.816 51.568C22.816 53.472 23.04 55.1893 23.488 56.72C23.9733 58.2507 24.6453 59.576 25.504 60.696C26.4 61.7787 27.4827 62.6187 28.752 63.216C30.0213 63.8133 31.4773 64.112 33.12 64.112C34.7253 64.112 36.1627 63.8133 37.432 63.216C38.7387 62.6187 39.8213 61.7787 40.68 60.696C41.576 59.576 42.248 58.2507 42.696 56.72C43.1813 55.1893 43.424 53.472 43.424 51.568C43.424 49.664 43.1813 47.9467 42.696 46.416C42.248 44.848 41.576 43.5227 40.68 42.44C39.8213 41.32 38.7387 40.4613 37.432 39.864C36.1627 39.2667 34.7253 38.968 33.12 38.968C31.4773 38.968 30.0213 39.2853 28.752 39.92C27.4827 40.5173 26.4 41.376 25.504 42.496C24.6453 43.5787 23.9733 44.904 23.488 46.472C23.04 48.0027 22.816 49.7013 22.816 51.568ZM52.44 51.568C52.44 54.8907 51.936 57.8213 50.928 60.36C49.9573 62.8613 48.6133 64.9707 46.896 66.688C45.1787 68.368 43.1253 69.6373 40.736 70.496C38.384 71.3547 35.8453 71.784 33.12 71.784C30.4693 71.784 27.968 71.3547 25.616 70.496C23.264 69.6373 21.2107 68.368 19.456 66.688C17.7013 64.9707 16.32 62.8613 15.312 60.36C14.304 57.8213 13.8 54.8907 13.8 51.568C13.8 48.2453 14.3227 45.3333 15.368 42.832C16.4133 40.2933 17.8133 38.1653 19.568 36.448C21.36 34.7307 23.4133 33.4427 25.728 32.584C28.08 31.7253 30.544 31.296 33.12 31.296C35.7707 31.296 38.272 31.7253 40.624 32.584C42.976 33.4427 45.0293 34.7307 46.784 36.448C48.5387 38.1653 49.92 40.2933 50.928 42.832C51.936 45.3333 52.44 48.2453 52.44 51.568ZM87.1937 32.192V39.64H75.4897V71H66.7537V39.64H55.0497V32.192H87.1937Z" fill="#40117C"/>
</svg>
