<svg width="185" height="124" viewBox="0 0 185 124" fill="none" xmlns="http://www.w3.org/2000/svg">
<path d="M63.5142 95.2313C64.6111 99.4193 62.1017 103.767 57.7967 104.226C48.6318 105.202 39.3212 103.741 30.8304 99.9239C19.943 95.029 11.0595 86.5544 5.65749 75.9095C0.25545 65.2647 -1.33954 53.0913 1.1378 41.4141C3.61515 29.7369 10.0155 19.2598 19.2743 11.7253C28.5331 4.19082 40.0924 0.0531502 52.0293 0.000508169C63.9663 -0.0521339 75.5615 3.98342 84.8865 11.436C94.2114 18.8885 100.704 29.3088 103.284 40.9637C105.296 50.0531 104.835 59.4663 102.016 68.2415C100.692 72.3634 95.9253 73.937 92.0475 72.0119C88.1697 70.0868 86.6795 65.3848 87.7359 61.1863C89.1152 55.7043 89.2141 49.941 87.9768 44.3525C86.1707 36.1941 81.6259 28.8999 75.0985 23.6831C68.571 18.4663 60.4543 15.6414 52.0985 15.6783C43.7426 15.7151 35.6511 18.6115 29.17 23.8856C22.6888 29.1598 18.2085 36.4938 16.4744 44.6678C14.7403 52.8419 15.8568 61.3632 19.6382 68.8146C23.4196 76.266 29.638 82.1982 37.2592 85.6246C42.4797 87.9717 48.1428 89.0461 53.7907 88.8096C58.1163 88.6285 62.4173 91.0432 63.5142 95.2313Z" fill="#EE4266"/>
<path d="M55.1664 44.9434H52.1709C47.3395 44.9434 44.4894 50.3623 47.2272 54.3433L79.9462 101.919C81.0656 103.547 82.9145 104.52 84.89 104.52H87.8854C92.7169 104.52 95.5669 99.1006 92.8292 95.1196L60.1101 47.5435C58.9907 45.9158 57.1418 44.9434 55.1664 44.9434Z" fill="#540D6E"/>
<path d="M134.319 74.018C133.292 73.7613 132.086 73.5046 130.7 73.248C129.314 72.94 127.825 72.786 126.234 72.786C125.515 72.786 124.643 72.863 123.616 73.017C122.641 73.1196 121.896 73.248 121.383 73.402V104.356H109.91V66.01C111.963 65.2913 114.376 64.624 117.148 64.008C119.971 63.3406 123.103 63.007 126.542 63.007C127.158 63.007 127.902 63.0583 128.775 63.161C129.648 63.2123 130.52 63.315 131.393 63.469C132.266 63.5716 133.138 63.7256 134.011 63.931C134.884 64.085 135.628 64.2903 136.244 64.547L134.319 74.018ZM159.991 76.174L167.999 63.854H179.857L165.997 83.335C169.077 87.185 171.875 90.9323 174.39 94.577C176.906 98.2216 178.908 101.481 180.396 104.356H168.076C167.666 103.586 167.152 102.636 166.536 101.507C165.92 100.326 165.227 99.12 164.457 97.888C163.687 96.6046 162.866 95.347 161.993 94.115C161.172 92.8316 160.351 91.6766 159.529 90.65C158.759 91.6253 157.964 92.7033 157.142 93.884C156.372 95.0646 155.628 96.271 154.909 97.503C154.191 98.6836 153.472 99.8643 152.753 101.045C152.086 102.226 151.496 103.329 150.982 104.356H139.278C139.894 103.073 140.741 101.558 141.819 99.813C142.897 98.0676 144.052 96.271 145.284 94.423C146.568 92.5236 147.902 90.65 149.288 88.802C150.674 86.9026 152.035 85.1316 153.369 83.489C151.059 80.255 148.749 76.9953 146.439 73.71C144.129 70.3733 141.845 67.088 139.586 63.854H151.983L159.991 76.174Z" fill="#540D6E"/>
</svg>
