<svg width="40" height="60" viewBox="0 0 40 60" fill="none" xmlns="http://www.w3.org/2000/svg">
<path d="M18.9479 30.0117C18.4271 28.1367 18.4375 24.5156 18.7396 24.5156C19.6146 24.5156 19.5312 28.8398 18.9479 30.0117ZM18.7708 35.543C17.9688 37.9102 16.9688 40.6172 15.8125 42.8906C17.7188 42.0703 19.875 40.875 22.3646 40.3242C21.0417 39.1992 19.7708 37.582 18.7708 35.543ZM8.96875 50.168C8.96875 50.2617 10.3438 49.5352 12.6042 45.457C11.9062 46.1953 9.57292 48.3281 8.96875 50.168ZM25.8333 18.75H40V57.1875C40 58.7461 38.8854 60 37.5 60H2.5C1.11458 60 0 58.7461 0 57.1875V2.8125C0 1.25391 1.11458 0 2.5 0H23.3333V15.9375C23.3333 17.4844 24.4583 18.75 25.8333 18.75ZM25 38.8828C22.9167 37.4531 21.5312 35.4844 20.5521 32.5781C21.0208 30.4102 21.7604 27.1172 21.1979 25.0547C20.7083 21.6094 16.7812 21.9492 16.2188 24.2578C15.6979 26.4023 16.1771 29.4258 17.0625 33.2812C15.8542 36.5156 14.0729 40.8516 12.8125 43.3359C12.8021 43.3359 12.8021 43.3477 12.7917 43.3477C9.96875 44.9766 5.125 48.5625 7.11458 51.3164C7.69792 52.125 8.78125 52.4883 9.35417 52.4883C11.2188 52.4883 13.0729 50.3789 15.7187 45.2461C18.4062 44.25 21.3542 43.0078 23.9479 42.5273C26.2083 43.9102 28.8542 44.8125 30.6146 44.8125C33.6562 44.8125 33.8646 41.0625 32.6667 39.7266C31.2188 38.1328 27.0104 38.5898 25 38.8828ZM39.2708 12.3047L29.0625 0.820312C28.5938 0.292969 27.9583 0 27.2917 0H26.6667V15H40V14.2852C40 13.5469 39.7396 12.832 39.2708 12.3047ZM31.5521 42.2227C31.9792 41.9062 31.2917 40.8281 27.0938 41.168C30.9583 43.0195 31.5521 42.2227 31.5521 42.2227Z" fill="#7A428E"/>
</svg>
