<svg width="60" height="40" viewBox="0 0 60 40" fill="none" xmlns="http://www.w3.org/2000/svg">
<path d="M52.5 0H7.5C5.51088 0 3.60322 0.702379 2.1967 1.95262C0.790176 3.20286 0 4.89856 0 6.66667L0 33.3333C0 35.1014 0.790176 36.7971 2.1967 38.0474C3.60322 39.2976 5.51088 40 7.5 40H52.5C54.4891 40 56.3968 39.2976 57.8033 38.0474C59.2098 36.7971 60 35.1014 60 33.3333V6.66667C60 4.89856 59.2098 3.20286 57.8033 1.95262C56.3968 0.702379 54.4891 0 52.5 0ZM18.75 31.6667H9.375C8.87772 31.6667 8.40081 31.4911 8.04918 31.1785C7.69754 30.866 7.5 30.442 7.5 30V28.3333C7.5 27.8913 7.69754 27.4674 8.04918 27.1548C8.40081 26.8423 8.87772 26.6667 9.375 26.6667H18.75V31.6667ZM33.75 30C33.75 30.442 33.5525 30.866 33.2008 31.1785C32.8492 31.4911 32.3723 31.6667 31.875 31.6667H22.5V26.6667H31.875C32.3723 26.6667 32.8492 26.8423 33.2008 27.1548C33.5525 27.4674 33.75 27.8913 33.75 28.3333V30ZM52.5 16.6667C52.5 17.5507 52.1049 18.3986 51.4016 19.0237C50.6984 19.6488 49.7446 20 48.75 20H11.25C10.2554 20 9.30161 19.6488 8.59835 19.0237C7.89509 18.3986 7.5 17.5507 7.5 16.6667V10C7.5 9.11594 7.89509 8.2681 8.59835 7.64298C9.30161 7.01786 10.2554 6.66667 11.25 6.66667H48.75C49.7446 6.66667 50.6984 7.01786 51.4016 7.64298C52.1049 8.2681 52.5 9.11594 52.5 10V16.6667Z" fill="#7A428E"/>
</svg>
