<svg width="40" height="40" viewBox="0 0 40 40" fill="none" xmlns="http://www.w3.org/2000/svg">
<path d="M12 24C9.76 24 8 22.24 8 20C8 17.76 9.76 16 12 16C14.24 16 16 17.76 16 20C16 22.24 14.24 24 12 24ZM12 17.6C10.64 17.6 9.6 18.64 9.6 20C9.6 21.36 10.64 22.4 12 22.4C13.36 22.4 14.4 21.36 14.4 20C14.4 18.64 13.36 17.6 12 17.6ZM28 16C25.76 16 24 14.24 24 12C24 9.76 25.76 8 28 8C30.24 8 32 9.76 32 12C32 14.24 30.24 16 28 16ZM28 9.6C26.64 9.6 25.6 10.64 25.6 12C25.6 13.36 26.64 14.4 28 14.4C29.36 14.4 30.4 13.36 30.4 12C30.4 10.64 29.36 9.6 28 9.6ZM28 32C25.76 32 24 30.24 24 28C24 25.76 25.76 24 28 24C30.24 24 32 25.76 32 28C32 30.24 30.24 32 28 32ZM28 25.6C26.64 25.6 25.6 26.64 25.6 28C25.6 29.36 26.64 30.4 28 30.4C29.36 30.4 30.4 29.36 30.4 28C30.4 26.64 29.36 25.6 28 25.6Z" fill="#40117C"/>
<path d="M15.2056 20.707L25.5096 25.859L24.7936 27.2894L14.4896 22.1374L15.2056 20.707ZM24.7944 12.707L25.5096 14.139L15.2056 19.2894L14.4904 17.8574L24.7944 12.707Z" fill="#40117C"/>
</svg>
